<?xml version="1.0" standalone="no"?>
<!DOCTYPE svg PUBLIC "-//W3C//DTD SVG 20010904//EN"
 "http://www.w3.org/TR/2001/REC-SVG-20010904/DTD/svg10.dtd">
<svg version="1.0" xmlns="http://www.w3.org/2000/svg"
 width="700.000000pt" height="700.000000pt" viewBox="0 0 700.000000 700.000000"
 preserveAspectRatio="xMidYMid meet">
<metadata>
Created by potrace 1.14, written by Peter Selinger 2001-2017
</metadata>
<g transform="translate(0.000000,700.000000) scale(0.100000,-0.100000)"
fill="#000000" stroke="none">
<path d="M0 3500 l0 -3500 3500 0 3500 0 0 3500 0 3500 -3500 0 -3500 0 0
-3500z m3660 2440 c494 -45 929 -210 1318 -502 116 -87 308 -270 406 -388 572
-684 722 -1625 391 -2450 -191 -475 -545 -896 -1015 -1206 -129 -85 -356 -206
-377 -202 -19 5 -674 847 -697 897 -30 66 -29 180 2 241 12 25 212 277 443
560 271 330 431 534 447 569 28 60 33 147 13 218 -25 89 -117 184 -209 215
-27 9 -198 13 -612 17 -636 7 -600 3 -667 73 -66 69 -63 13 -63 1022 l0 916
23 5 c93 23 420 31 597 15z m-1148 -1324 l3 -1104 30 -43 c17 -24 53 -57 80
-74 l48 -30 451 -5 c510 -6 490 -2 522 -86 31 -80 29 -83 -348 -498 -189 -207
-354 -398 -368 -424 -20 -38 -25 -61 -25 -122 0 -42 6 -90 14 -108 8 -18 188
-261 402 -540 255 -334 384 -510 378 -517 -15 -15 -446 -12 -554 3 -449 66
-853 239 -1192 513 -103 83 -282 264 -363 367 -280 357 -457 779 -521 1242
-17 124 -17 496 0 620 58 426 211 816 437 1116 182 241 432 467 711 641 94 58
269 152 285 153 4 0 9 -497 10 -1104z"/>
</g>
</svg>
