<svg width="120" height="121" viewBox="0 0 120 121" fill="none" xmlns="http://www.w3.org/2000/svg">
<path d="M114.9 60.5C117.717 60.5 120.023 62.7876 119.783 65.5941C118.925 75.6645 115.534 85.3849 109.888 93.8342C103.295 103.701 93.9246 111.392 82.961 115.933C71.9974 120.474 59.9334 121.662 48.2946 119.347C36.6557 117.032 25.9647 111.318 17.5736 102.926C9.18244 94.5353 3.468 83.8443 1.15288 72.2054C-1.16223 60.5666 0.0259702 48.5026 4.56723 37.539C9.10849 26.5754 16.7988 17.2047 26.6658 10.6118C35.1151 4.96617 44.8355 1.57462 54.9059 0.716599C57.7124 0.47748 60 2.78335 60 5.6C60 8.41665 57.7106 10.673 54.9087 10.9609C46.8586 11.7882 39.1038 14.5684 32.3326 19.0928C24.143 24.5649 17.76 32.3426 13.9908 41.4424C10.2216 50.5421 9.23535 60.5552 11.1569 70.2155C13.0784 79.8757 17.8214 88.7493 24.7861 95.7139C31.7507 102.679 40.6242 107.422 50.2845 109.343C59.9448 111.265 69.9579 110.278 79.0576 106.509C88.1574 102.74 95.9351 96.357 101.407 88.1674C105.932 81.3962 108.712 73.6414 109.539 65.5913C109.827 62.7894 112.083 60.5 114.9 60.5Z" fill="white"/>
<path d="M33 53.5L55 76.5L111 21.5" stroke="white" stroke-width="10" stroke-linecap="round" stroke-linejoin="round"/>
</svg>
