<svg width="152" height="152" viewBox="0 0 152 152" fill="none" xmlns="http://www.w3.org/2000/svg">
<path d="M14.4651 140C12.4256 140 10.7 139.616 9.28804 138.847C7.89356 138.078 6.83026 136.986 6.09816 135.571C5.36605 134.156 5 132.479 5 130.539C5 128.583 5.37477 126.897 6.1243 125.481C6.87384 124.049 7.95456 122.948 9.36648 122.179C10.7784 121.393 12.4692 121 14.4389 121C15.7288 121 16.9403 121.192 18.0733 121.577C19.2063 121.943 20.1476 122.459 20.8971 123.123L19.7728 125.743C18.9536 125.097 18.1169 124.634 17.2627 124.354C16.4086 124.075 15.4674 123.935 14.4389 123.935C12.4866 123.935 11.005 124.503 9.994 125.639C9.00043 126.774 8.50364 128.408 8.50364 130.539C8.50364 132.688 9.01786 134.322 10.0463 135.44C11.0747 136.558 12.5999 137.117 14.6219 137.117C15.1972 137.117 15.7811 137.074 16.3738 136.986C16.9839 136.881 17.5852 136.733 18.1779 136.541V132.243H13.9421V129.753H20.9756V138.637C20.1214 139.057 19.1104 139.389 17.9426 139.633C16.7747 139.878 15.6155 140 14.4651 140Z" fill="white"/>
<path d="M26.9657 139.738V121.262H39.2284V123.935H30.1817V129.019H38.6532V131.692H30.1817V137.065H39.2284V139.738H26.9657Z" fill="white"/>
<path d="M52.9154 140C51.1375 140 49.5774 139.607 48.2352 138.821C46.9104 138.034 45.882 136.934 45.1499 135.519C44.4178 134.086 44.0517 132.409 44.0517 130.487C44.0517 128.548 44.4178 126.87 45.1499 125.455C45.882 124.04 46.9104 122.948 48.2352 122.179C49.56 121.393 51.12 121 52.9154 121C54.7108 121 56.2709 121.393 57.5957 122.179C58.9204 122.948 59.9489 124.04 60.681 125.455C61.4131 126.87 61.7791 128.539 61.7791 130.461C61.7791 132.4 61.4131 134.086 60.681 135.519C59.9489 136.934 58.9204 138.034 57.5957 138.821C56.2709 139.607 54.7108 140 52.9154 140ZM52.9154 137.117C54.6063 137.117 55.9223 136.532 56.8636 135.361C57.8049 134.191 58.2755 132.566 58.2755 130.487C58.2755 128.39 57.8049 126.766 56.8636 125.612C55.9397 124.459 54.6237 123.883 52.9154 123.883C51.2246 123.883 49.9086 124.459 48.9673 125.612C48.026 126.766 47.5554 128.39 47.5554 130.487C47.5554 132.566 48.026 134.191 48.9673 135.361C49.9086 136.532 51.2246 137.117 52.9154 137.117Z" fill="white"/>
<path d="M73.6477 140C72.201 140 70.8588 139.817 69.6212 139.45C68.3836 139.065 67.3377 138.55 66.4836 137.903L67.5033 135.257C68.3574 135.868 69.29 136.34 70.301 136.672C71.3294 137.004 72.445 137.17 73.6477 137.17C75.0248 137.17 76.0271 136.943 76.6546 136.488C77.2821 136.017 77.5959 135.414 77.5959 134.68C77.5959 134.069 77.3693 133.588 76.9161 133.239C76.4803 132.889 75.722 132.601 74.6413 132.374L71.7652 131.771C68.4881 131.072 66.8496 129.386 66.8496 126.713C66.8496 125.56 67.1547 124.555 67.7648 123.699C68.3748 122.843 69.2202 122.179 70.301 121.708C71.3817 121.236 72.628 121 74.0399 121C75.295 121 76.4716 121.192 77.5697 121.577C78.6679 121.943 79.583 122.468 80.3151 123.149L79.2954 125.665C77.8486 124.442 76.0881 123.83 74.0138 123.83C72.811 123.83 71.8698 124.084 71.19 124.59C70.5101 125.097 70.1702 125.761 70.1702 126.582C70.1702 127.211 70.3794 127.718 70.7978 128.102C71.2161 128.469 71.9308 128.757 72.9418 128.967L75.7918 129.57C77.5174 129.937 78.7986 130.513 79.6353 131.299C80.4894 132.086 80.9165 133.134 80.9165 134.444C80.9165 135.545 80.6202 136.514 80.0275 137.353C79.4348 138.192 78.5894 138.847 77.4913 139.319C76.4106 139.773 75.1294 140 73.6477 140Z" fill="white"/>
<path d="M89.9627 139.738V124.066H83.6352V121.262H99.6369V124.066H93.3094V139.738H89.9627Z" fill="white"/>
<path d="M108.594 139.738V131.247L101.508 121.262H105.404L110.319 128.259L115.261 121.262H119L111.94 131.273V139.738H108.594Z" fill="white"/>
<path d="M86.3848 37.7171C88.2234 34.7747 92.4711 30.59 95.4591 28.8264C98.4471 27.0628 101.816 26.0442 105.28 25.8566C108.745 25.669 112.203 26.3178 115.364 27.7484C118.525 29.1789 121.296 31.3492 123.441 34.0758C125.587 36.8024 127.045 40.0053 127.692 43.4141C128.339 46.8228 128.157 50.3372 127.16 53.6605C126.163 56.9837 124.38 60.0183 121.964 62.5078C119.547 64.9973 117.623 65.8118 114.331 66.907L112.936 58.2582L106.449 47.4471L96.7194 40.9605L86.3848 37.7171Z" fill="#FCB641"/>
<path d="M77.8884 37.1626C87.4573 37.1626 98.601 39.5997 105.367 46.3661C112.935 53.9338 116.178 60.4205 115.097 76.6371C119.422 77.7182 120.503 80.9615 121.584 83.1237C122.665 85.2859 122.665 89.6104 122.665 92.8537C122.665 96.097 121.584 99.3403 119.422 101.503C115.496 105.429 114.577 105.301 109.024 105.301H14.0372C10.4932 105.301 6.97018 103.842 4.46416 101.336C1.95808 98.8304 0.499863 95.3073 0.499863 91.7632C0.499863 88.2191 1.95808 84.698 4.46416 82.192C6.95477 79.7012 10.4501 78.2473 13.972 78.2294C14.6593 71.8081 17.5684 65.6276 22.1385 61.0575C27.4011 55.7948 34.7975 52.7305 42.24 52.7305C44.0469 52.7305 45.8499 52.9158 47.6215 53.2646C48.9179 51.33 50.3942 49.517 52.0423 47.8691C58.8085 41.1028 68.3193 37.1626 77.8884 37.1626Z" fill="white"/>
<path d="M105.692 20.9599L105.692 1.5" stroke="#FCB641" stroke-width="3"/>
<path d="M124.582 28.774L138.342 15.0138" stroke="#FCB641" stroke-width="3"/>
<path d="M132.396 47.7715L151.855 47.7715" stroke="#FCB641" stroke-width="3"/>
<path d="M124.689 66.907L138.449 80.6672" stroke="#FCB641" stroke-width="3"/>
<path d="M73.228 15.0137L86.9883 28.7739" stroke="#FCB641" stroke-width="3"/>
</svg>
