<svg width="27" height="30" viewBox="0 0 27 30" fill="none" xmlns="http://www.w3.org/2000/svg">
<path d="M0.638947 0.870117V2.75532H4.07791L4.07851 6.44922H5.9631V0.870117H0.638947Z" fill="#222222"/>
<path d="M2.52439 4.56445H0.639252V6.44892H2.52439V4.56445Z" fill="#222222"/>
<path d="M4.07851 8.25781V21.7974L2.52421 23.6191V8.25781H0.638947V28.3133L5.96245 22.7355L5.9631 22.7342V8.25781H4.07851Z" fill="#222222"/>
<path d="M14.3412 0.870361H7.72931V6.44941H14.4414C18.8622 6.44941 21.297 9.48067 21.297 14.9847C21.297 20.1919 18.606 23.5567 14.4414 23.5567H7.74119L5.89175 25.4409H14.4414C19.6692 25.4409 23.1816 21.2386 23.1816 14.9843C23.1816 8.45929 19.9212 4.56397 14.4594 4.56397H9.55943V2.75485H14.3412C21.1884 2.75485 25.1154 7.21225 25.1154 14.9843C25.1154 22.4355 20.7834 27.2503 14.0796 27.2503H4.30277L2.45273 29.1354H14.0796C21.8076 29.1354 27 23.4484 27 14.9843C27 6.14647 22.2678 0.870361 14.3412 0.870361Z" fill="#004B87"/>
</svg>
