<svg width="75" height="30" viewBox="0 0 75 30" fill="none" xmlns="http://www.w3.org/2000/svg">
<path d="M48.6389 0.870117V2.75532H52.0779L52.0785 6.44922H53.9631V0.870117H48.6389Z" fill="#222222"/>
<path d="M50.5244 4.56445H48.6392V6.44892H50.5244V4.56445Z" fill="#222222"/>
<path d="M52.0785 8.25781V21.7974L50.5242 23.6191V8.25781H48.6389V28.3133L53.9624 22.7355L53.9631 22.7342V8.25781H52.0785Z" fill="#222222"/>
<path d="M31.0285 23.6161L29.2218 25.513H36.3866V27.2386H25.253L33.7431 18.3594C36.4829 15.4889 37.8724 12.5792 37.8724 9.7101C37.8724 4.03208 33.3118 0.968262 29.0209 0.968262C25.4528 0.968262 22.6948 2.36122 20.8225 5.10813L20.7296 5.24435L22.1923 6.43866C22.5659 5.92866 22.9679 5.44003 23.3963 4.97507C24.1396 4.25732 25.0223 3.69973 25.9897 3.33676C26.9572 2.9738 27.9888 2.8132 29.0208 2.86489C32.3923 2.86489 35.9752 5.26375 35.9752 9.70974C35.9752 12.079 34.7548 14.5544 32.348 17.0677L22.683 27.1891V24.4547L30.8533 15.8339C32.1183 14.4864 34.0304 12.4504 34.0304 9.91098C34.0387 9.37962 33.9816 8.84928 33.8605 8.33184C33.2939 5.9891 31.416 4.59024 28.8376 4.59024C27.6667 4.56724 26.5133 4.87822 25.5127 5.48679C25.0183 5.80807 24.5767 6.20418 24.2039 6.66096C23.9647 6.9399 23.7439 7.23402 23.5428 7.54158L25.0062 8.73648L25.1137 8.55852C25.484 7.90434 26.0275 7.36494 26.6844 6.99948C27.3413 6.63408 28.0862 6.45672 28.8373 6.48702C30.5284 6.48702 31.6552 7.2957 32.0089 8.7588C32.092 9.1371 32.1337 9.52344 32.1332 9.9108C32.1332 11.7272 30.631 13.3102 29.3057 14.7069L20.7296 23.7605V29.1355H38.348V23.6162L31.0285 23.6161Z" fill="#222222"/>
<path d="M0 5.82447V7.89198L9.18342 3.7946V5.60195L0 9.73632V11.8181L9.18342 7.68306V27.1741H7.23852V10.6718L5.34162 11.5073V29.1353H11.0803V0.870117L0 5.82447Z" fill="#222222"/>
<path d="M62.3412 0.870361H55.7293V6.44941H62.4414C66.8622 6.44941 69.297 9.48067 69.297 14.9847C69.297 20.1919 66.606 23.5567 62.4414 23.5567H55.7412L53.8918 25.4409H62.4414C67.6692 25.4409 71.1816 21.2386 71.1816 14.9843C71.1816 8.45929 67.9212 4.56397 62.4594 4.56397H57.5594V2.75485H62.3412C69.1884 2.75485 73.1154 7.21225 73.1154 14.9843C73.1154 22.4355 68.7834 27.2503 62.0796 27.2503H52.3028L50.4527 29.1354H62.0796C69.8076 29.1354 75 23.4484 75 14.9843C75 6.14647 70.2678 0.870361 62.3412 0.870361Z" fill="#004B87"/>
<path d="M17.6736 13.5305H14.729V16.4751H17.6736V13.5305Z" fill="#004B87"/>
<path d="M44.3951 13.5305H41.4505V16.4751H44.3951V13.5305Z" fill="#004B87"/>
</svg>
