<svg width="27" height="30" viewBox="0 0 27 30" fill="none" xmlns="http://www.w3.org/2000/svg">
<path d="M0.638916 0.870117V2.75532H4.07787L4.07847 6.44922H5.96307V0.870117H0.638916Z" fill="white"/>
<path d="M2.52436 4.56445H0.639221V6.44892H2.52436V4.56445Z" fill="white"/>
<path d="M4.07847 8.25781V21.7974L2.52417 23.6191V8.25781H0.638916V28.3133L5.96241 22.7355L5.96307 22.7342V8.25781H4.07847Z" fill="white"/>
<path d="M14.3412 0.870361H7.72928V6.44941H14.4414C18.8622 6.44941 21.297 9.48067 21.297 14.9847C21.297 20.1919 18.606 23.5567 14.4414 23.5567H7.74116L5.89172 25.4409H14.4414C19.6692 25.4409 23.1816 21.2386 23.1816 14.9843C23.1816 8.45929 19.9212 4.56397 14.4594 4.56397H9.5594V2.75485H14.3412C21.1884 2.75485 25.1154 7.21225 25.1154 14.9843C25.1154 22.4355 20.7834 27.2503 14.0796 27.2503H4.30274L2.4527 29.1354H14.0796C21.8076 29.1354 27 23.4484 27 14.9843C27 6.14647 22.2678 0.870361 14.3412 0.870361Z" fill="#4DABFE"/>
</svg>
