<svg width="100" height="41" viewBox="0 0 100 41" fill="none" xmlns="http://www.w3.org/2000/svg">
<path d="M64.8519 1.66016V4.17376H69.4372L69.438 9.09896H71.9508V1.66016H64.8519Z" fill="white"/>
<path d="M67.3658 6.58594H64.8523V9.09856H67.3658V6.58594Z" fill="white"/>
<path d="M69.438 11.5105V29.5633L67.3656 31.9922V11.5105H64.8519V38.2511L71.9499 30.8141L71.9508 30.8123V11.5105H69.438Z" fill="white"/>
<path d="M41.3712 31.9881L38.9624 34.5173H48.5154V36.8182H33.6706L44.9908 24.9792C48.6439 21.1518 50.4965 17.2723 50.4965 13.4468C50.4965 5.8761 44.4157 1.79102 38.6944 1.79102C33.9371 1.79102 30.2597 3.64829 27.7632 7.31084L27.6394 7.49247L29.5896 9.08488C30.0879 8.40488 30.6238 7.75337 31.1951 7.13342C32.1861 6.17642 33.363 5.43297 34.6529 4.94902C35.9428 4.46506 37.3184 4.25093 38.6944 4.31985C43.1897 4.31985 47.9668 7.51834 47.9668 13.4463C47.9668 16.6054 46.3397 19.9058 43.1306 23.257L30.244 36.7522V33.1062L41.1376 21.6118C42.8244 19.8152 45.3738 17.1005 45.3738 13.7146C45.3848 13.0062 45.3088 12.299 45.1473 11.6091C44.3919 8.48547 41.888 6.62032 38.4501 6.62032C36.8888 6.58966 35.3511 7.0043 34.0168 7.81572C33.3576 8.24409 32.7689 8.77224 32.2719 9.38128C31.9529 9.7532 31.6584 10.1454 31.3904 10.5554L33.3416 12.1486L33.4848 11.9114C33.9786 11.0391 34.7032 10.3199 35.5792 9.83264C36.455 9.34544 37.4483 9.10896 38.4497 9.14936C40.7044 9.14936 42.2068 10.2276 42.6784 12.1784C42.7893 12.6828 42.8449 13.1979 42.8442 13.7144C42.8442 16.1363 40.8412 18.2469 39.0743 20.1092L27.6394 32.1807V39.3473H51.1307V31.9883L41.3712 31.9881Z" fill="white"/>
<path d="M0 8.26596V11.0226L12.2446 5.55946V7.96927L0 13.4818V16.2574L12.2446 10.7441V36.7322H9.65136V14.729L7.12216 15.8431V39.347H14.7737V1.66016L0 8.26596Z" fill="white"/>
<path d="M83.1215 1.66052H74.3057V9.09926H83.2551C89.1495 9.09926 92.3959 13.1409 92.3959 20.4796C92.3959 27.4225 88.8079 31.909 83.2551 31.909H74.3215L71.8556 34.4213H83.2551C90.2255 34.4213 94.9087 28.8182 94.9087 20.4791C94.9087 11.7791 90.5615 6.58534 83.2791 6.58534H76.7459V4.17318H83.1215C92.2511 4.17318 97.4871 10.1164 97.4871 20.4791C97.4871 30.414 91.7111 36.8338 82.7727 36.8338H69.737L67.2703 39.3473H82.7727C93.0767 39.3473 99.9999 31.7646 99.9999 20.4791C99.9999 8.69534 93.6903 1.66052 83.1215 1.66052Z" fill="#4DABFE"/>
<path d="M23.5648 18.5406H19.6387V22.4667H23.5648V18.5406Z" fill="#4DABFE"/>
<path d="M59.1935 18.5406H55.2673V22.4667H59.1935V18.5406Z" fill="#4DABFE"/>
</svg>
