<svg width="60" height="60" viewBox="0 0 60 60" fill="none" xmlns="http://www.w3.org/2000/svg">
<circle cx="30" cy="30" r="30" fill="#004B87"/>
<path d="M18 16V17.8852H21.439L21.4396 21.5791H23.3242V16H18Z" fill="white"/>
<path d="M19.8854 19.6943H18.0002V21.5788H19.8854V19.6943Z" fill="white"/>
<path d="M21.4396 23.3877V36.9273L19.8853 38.749V23.3877H18V43.4432L23.3235 37.8654L23.3242 37.8641V23.3877H21.4396Z" fill="white"/>
<path d="M31.7022 16.0002H25.0903V21.5793H31.8024C36.2232 21.5793 38.658 24.6106 38.658 30.1145C38.658 35.3218 35.967 38.6866 31.8024 38.6866H25.1022L23.2527 40.5708H31.8024C37.0302 40.5708 40.5426 36.3685 40.5426 30.1142C40.5426 23.5892 37.2822 19.6939 31.8204 19.6939H26.9204V17.8847H31.7022C38.5494 17.8847 42.4764 22.3421 42.4764 30.1142C42.4764 37.5653 38.1444 42.3802 31.4406 42.3802H21.6638L19.8137 44.2653H31.4406C39.1686 44.2653 44.361 38.5783 44.361 30.1142C44.361 21.2764 39.6288 16.0002 31.7022 16.0002Z" fill="#4DABFE"/>
</svg>
