<svg width="60" height="60" viewBox="0 0 60 60" fill="none" xmlns="http://www.w3.org/2000/svg">
<circle cx="30" cy="30" r="30" fill="#49227B"/>
<path d="M27.7121 14.1732C26.774 15.0218 25.649 16.6314 25.1468 17.844C25.1021 17.9511 25.0573 18.0581 25.0476 18.0815C25.0378 18.1048 25.0087 18.1301 24.9853 18.134C24.925 18.1457 24.6875 18.1788 24.4637 18.2041C23.8661 18.2742 23.0448 18.4552 22.3421 18.6693C21.2931 18.9885 20.2109 19.4984 19.2611 20.1232C18.8932 20.3665 18.1964 20.8939 18.1419 20.9699C18.1088 21.0185 18.1166 21.0652 18.2081 21.3961C18.7278 23.251 19.6776 24.9307 21.0264 26.3768C21.295 26.6649 21.7349 27.0872 21.9607 27.2799L22.0191 27.3266L21.9938 27.4415C21.9821 27.5057 21.9587 27.6089 21.9431 27.6731C21.912 27.8035 21.8303 28.2706 21.7972 28.51C21.7018 29.201 21.6707 30.3396 21.729 31.0636C21.8108 32.0796 21.986 32.9711 22.276 33.8625C22.3811 34.1817 22.5835 34.7014 22.6263 34.7578C22.6536 34.7968 22.6789 34.7968 23.5839 34.7968C24.5785 34.7968 24.7498 34.7851 25.4427 34.678C26.9297 34.4503 28.3389 33.9579 29.7422 33.1774L29.9699 33.0509L30.1023 33.1287C30.8205 33.5433 31.8267 33.9812 32.6598 34.2381C33.8976 34.6196 35.0129 34.787 36.3462 34.787C36.9048 34.787 37.2181 34.7676 37.2921 34.7286C37.3622 34.6897 37.6522 33.8644 37.804 33.2669C38.0161 32.4397 38.1212 31.7488 38.1777 30.7873C38.2419 29.7284 38.131 28.3952 37.9091 27.5174C37.8604 27.3228 37.8585 27.3305 38.0045 27.2118C38.0765 27.1515 38.3295 26.9121 38.567 26.6785C39.9995 25.2596 41.0544 23.4923 41.6461 21.5226C41.7162 21.2891 41.7862 21.0127 41.7862 20.966C41.7862 20.8959 40.922 20.2458 40.3654 19.8974C38.8433 18.9437 37.1481 18.3559 35.1998 18.1048L34.8514 18.0601L34.7735 17.8829C34.6373 17.5793 34.2655 16.863 34.0981 16.5789C33.5726 15.6952 32.9284 14.868 32.2335 14.1888L32.0389 14L31.854 14.0856C31.7528 14.1323 31.6146 14.2024 31.5484 14.2413C31.4842 14.2802 31.4258 14.3114 31.4199 14.3114C31.3752 14.3114 30.6356 14.7999 30.2541 15.0802C30.1353 15.1678 30.0186 15.2495 29.9952 15.2631C29.9427 15.2923 29.9446 15.2923 29.5982 15.0296C29.0707 14.6286 28.5179 14.288 28.045 14.072L27.897 14.0039L27.7121 14.1732ZM28.3973 16.4504C28.444 16.4796 28.5121 16.538 28.5491 16.575L28.6152 16.6451L28.5646 16.7093C28.4673 16.828 28.187 17.2387 28.0372 17.482C27.5448 18.2761 27.1127 19.2493 26.8168 20.2244C26.7935 20.3023 26.7662 20.3704 26.7584 20.3762C26.7487 20.3821 26.4762 20.3859 26.1531 20.3859C25.5965 20.384 25.4622 20.3898 24.9405 20.4424C23.6404 20.5689 22.2682 21.0244 21.0926 21.7211L20.8843 21.8438L20.9466 21.9859C21.0692 22.27 21.404 22.9123 21.5694 23.179C21.9256 23.757 22.2585 24.1989 22.6905 24.666C22.7956 24.7789 22.9144 24.9093 22.9572 24.956C23.0312 25.0397 23.3465 25.3277 23.5937 25.5379C23.8078 25.719 24.3138 26.0927 24.5474 26.2425C24.7537 26.3729 24.777 26.3943 24.7693 26.4372C24.7634 26.4644 24.7186 26.6045 24.668 26.7486C24.2554 27.9203 24.053 29.1484 24.0802 30.2909C24.0919 30.6997 24.127 31.1357 24.1698 31.4101C24.2632 31.9843 24.3391 32.3541 24.3741 32.3891C24.4033 32.4183 24.45 32.4144 25.0476 32.3327C26.484 32.1341 27.9613 31.5561 29.1641 30.723C29.3335 30.6063 29.7831 30.2695 29.8959 30.1761L29.966 30.1177L30.0808 30.2053C30.3494 30.4116 30.4818 30.507 30.7115 30.6646C31.817 31.4218 33.0451 31.9473 34.3122 32.2062C34.7521 32.2957 35.4586 32.3891 35.5423 32.3677C35.6085 32.3502 35.6299 32.2918 35.6941 31.9668C35.916 30.8301 35.9257 29.6409 35.7214 28.4419C35.6221 27.8541 35.41 27.097 35.1998 26.5831C35.1336 26.4235 35.1297 26.406 35.1608 26.3885C35.5209 26.1744 36.1009 25.7345 36.5525 25.3277C36.8581 25.0533 37.4614 24.4149 37.6113 24.2086C37.6424 24.1658 37.7086 24.0821 37.7573 24.0237C37.9636 23.7765 38.3412 23.2159 38.5494 22.8461C38.7694 22.453 39.0224 21.9119 39.0224 21.8321C39.0224 21.7971 38.9854 21.7659 38.8433 21.6822C37.7845 21.0613 36.5252 20.6254 35.3633 20.4735C35.229 20.456 35.0596 20.4307 34.9837 20.419C34.9059 20.4054 34.4874 20.3918 34.0008 20.3859L33.1561 20.3743L33.1366 20.3061C33.086 20.1232 32.8466 19.4128 32.7649 19.2065C32.5255 18.5914 32.251 18.0289 31.9708 17.5715C31.8404 17.3594 31.5951 17.0032 31.4783 16.8533C31.4102 16.7677 31.3538 16.684 31.3538 16.6665C31.3538 16.6334 31.5348 16.4504 31.601 16.4154C31.6379 16.3959 31.6535 16.4076 31.7567 16.5263C31.924 16.7171 32.0875 16.937 32.2939 17.2523C32.7182 17.9005 33.0218 18.5583 33.341 19.5081L33.4733 19.9071L34.0047 19.9208C35.0771 19.948 35.9335 20.0784 36.8639 20.3529C37.6405 20.5825 38.4521 20.9368 39.1392 21.3494C39.6083 21.6316 39.5635 21.583 39.5109 21.7523C39.2482 22.5795 38.7266 23.4982 37.9772 24.4558C37.3875 25.2071 36.5369 25.9914 35.7661 26.4956C35.7253 26.5228 35.6883 26.5637 35.6825 26.5851C35.6766 26.6084 35.698 26.7019 35.7311 26.7933C35.9316 27.3617 36.0951 28.0157 36.1905 28.6346C36.278 29.199 36.3014 29.5727 36.2917 30.2073C36.2819 30.8223 36.2664 31.0247 36.1885 31.5366C36.1262 31.9434 35.9861 32.5974 35.9219 32.7784L35.8985 32.8446L35.6844 32.8309C35.0966 32.7959 34.2227 32.6558 33.6602 32.5098C32.4729 32.2003 31.3869 31.669 30.1451 30.7912C30.0731 30.7406 30.001 30.6997 29.9835 30.6997C29.966 30.6997 29.8706 30.76 29.7714 30.832C28.8644 31.5016 27.8075 32.0466 26.7623 32.3813C25.9526 32.6421 25.213 32.7823 24.1776 32.8738C24.0102 32.8874 24.0316 32.9185 23.9304 32.5059C23.7104 31.6203 23.6345 30.9021 23.652 29.9017C23.6715 28.7611 23.8155 27.9242 24.1659 26.8887C24.2145 26.7466 24.2476 26.6182 24.2418 26.6026C24.2359 26.587 24.1561 26.5209 24.0627 26.4527C23.8233 26.2795 23.436 25.972 23.2044 25.7715C22.9338 25.536 22.3383 24.9424 22.1962 24.7633C22.1319 24.6835 22.0171 24.5434 21.9412 24.4519C21.3923 23.796 20.8259 22.8384 20.4951 22.0112C20.3432 21.6316 20.3238 21.6822 20.7364 21.4331C21.9899 20.6798 23.3543 20.2069 24.7654 20.0337C25.1021 19.9928 25.7093 19.9558 26.1512 19.95L26.4295 19.9461L26.5443 19.6152C26.6864 19.2065 26.7253 19.1033 26.8752 18.753C27.1808 18.0406 27.609 17.2815 28.0255 16.7151C28.0664 16.6606 28.1345 16.5672 28.1793 16.5049C28.224 16.4446 28.2707 16.394 28.2844 16.394C28.298 16.394 28.3486 16.4193 28.3973 16.4504ZM30.1607 18.2819C30.3592 18.5681 30.4993 18.8055 30.6823 19.1675C31.2 20.1874 31.4647 21.1917 31.525 22.3498C31.5387 22.5775 31.5406 22.5931 31.5776 22.5912C31.599 22.5892 31.7567 22.5522 31.9279 22.5094C33.2592 22.1708 34.6295 22.1669 35.8498 22.4997C35.9919 22.5386 36.3209 22.6418 36.3403 22.6535C36.3637 22.669 36.3267 22.7274 36.136 22.9824C35.5793 23.7201 34.7832 24.3838 33.8042 24.9287C33.4422 25.1292 32.759 25.4387 32.5274 25.5049L32.4651 25.5243L32.6461 25.8007C33.0529 26.4235 33.3099 26.951 33.5512 27.6517C33.7536 28.2395 33.9132 29.1037 33.921 29.6662C33.923 29.8005 33.9288 29.9153 33.9346 29.925C33.9405 29.9348 33.9405 29.9756 33.9327 30.0165L33.921 30.0924L33.849 30.073C33.4753 29.9776 32.7921 29.672 32.3036 29.3839C31.5114 28.9168 30.6375 28.1636 30.1392 27.5232C30.0672 27.4298 30.001 27.3481 29.9913 27.3422C29.9816 27.3364 29.9466 27.3734 29.9115 27.424C29.8123 27.5719 29.5378 27.8833 29.242 28.1869C28.6425 28.8 27.9866 29.2769 27.1964 29.6739C26.8382 29.855 26.1025 30.1333 26.0577 30.1041C26.0013 30.0691 26.0986 29.0803 26.2173 28.5003C26.4139 27.5466 26.8363 26.5481 27.4066 25.7014C27.5117 25.5438 27.5097 25.5282 27.389 25.4854C27.2294 25.4309 26.739 25.2168 26.5073 25.102C25.4972 24.6037 24.5337 23.8524 23.9148 23.0797C23.7007 22.8111 23.6462 22.7391 23.6462 22.7177C23.6462 22.6749 24.234 22.4958 24.633 22.4179C25.2033 22.3051 26.0091 22.2622 26.6202 22.3089C27.1672 22.3518 27.8172 22.4647 28.2377 22.5912C28.3272 22.6184 28.407 22.6379 28.4148 22.632C28.4381 22.6184 28.4537 22.5153 28.4848 22.1688C28.6172 20.709 29.0863 19.3544 29.8259 18.2897C29.8901 18.1982 29.9543 18.1087 29.9699 18.0931C30.003 18.0581 30.0088 18.062 30.1607 18.2819Z" fill="white"/>
<path d="M19.7534 37.3524C19.656 37.4011 19.5977 37.4984 19.5977 37.6093C19.5977 37.8876 19.9499 38.0103 20.1212 37.7923C20.1816 37.7164 20.1796 37.5237 20.1173 37.4322C20.094 37.3972 20.0512 37.3563 20.0259 37.3427C19.9558 37.3076 19.8332 37.3115 19.7534 37.3524Z" fill="white"/>
<path d="M20.6351 37.3563C20.5631 37.3991 20.5183 37.4614 20.493 37.5509C20.4697 37.6327 20.532 37.8059 20.604 37.8526C20.7344 37.9382 20.8823 37.9246 20.9913 37.8156C21.1684 37.6385 21.0341 37.3173 20.783 37.3173C20.7324 37.3173 20.6721 37.3329 20.6351 37.3563Z" fill="white"/>
<path d="M20.0454 38.1464C19.5491 38.2379 19.1617 38.4676 18.8893 38.8276C18.6713 39.1196 18.5681 39.4271 18.5662 39.7891C18.5662 40.2835 18.7277 40.6592 19.0897 41.0017C19.4148 41.3073 19.8274 41.463 20.3179 41.463C21.0536 41.463 21.6628 41.0913 21.9528 40.4645C22.0638 40.2232 22.0793 40.1356 22.0774 39.76C22.0774 39.4563 22.0715 39.4154 22.0248 39.2734C21.9567 39.0651 21.7952 38.7965 21.6511 38.6505C21.5207 38.5182 21.2599 38.3411 21.0964 38.271C20.8687 38.1756 20.7325 38.1503 20.4055 38.1445C20.2342 38.1406 20.0726 38.1425 20.0454 38.1464ZM20.5164 38.4851C20.9991 38.5552 21.365 38.9172 21.5149 39.4777C21.6064 39.8261 21.5655 40.231 21.402 40.5365C21.3105 40.7117 21.0964 40.918 20.9193 41.0017C20.3704 41.2625 19.771 41.1243 19.4148 40.6592C19.2844 40.4879 19.2026 40.3166 19.1481 40.1025C19.0917 39.8767 19.1014 39.4972 19.1715 39.2909C19.3661 38.7187 19.9033 38.3975 20.5164 38.4851Z" fill="white"/>
<path d="M24.162 38.1464C23.4982 38.2437 23.0506 38.4715 22.7723 38.8549C22.6107 39.0748 22.5426 39.2364 22.4881 39.5264C22.4492 39.7346 22.4511 39.8962 22.4978 40.1512C22.5387 40.3847 22.6457 40.628 22.7839 40.811C22.9533 41.0309 23.3231 41.2703 23.6423 41.3637C23.9946 41.4688 24.5123 41.4922 24.9892 41.4241C25.3921 41.3676 25.5225 41.3443 25.5497 41.3229C25.5672 41.3073 25.5731 41.1263 25.5731 40.5365V39.7697H25.2188L24.8626 39.7716L24.9249 39.8242C24.96 39.8534 25.0067 39.9196 25.03 39.974C25.069 40.0636 25.0748 40.1122 25.0826 40.5385C25.0904 40.9414 25.0884 41.0095 25.0612 41.0309C24.9736 41.1049 24.4344 41.1555 24.1775 41.1127C23.6579 41.0309 23.2433 40.6786 23.072 40.1745C23.0194 40.0266 23.0156 39.9896 23.0156 39.7405C23.0175 39.4836 23.0194 39.4583 23.0778 39.3064C23.1966 38.9892 23.3756 38.7848 23.6656 38.633C23.8369 38.5435 23.9712 38.5065 24.1892 38.487C24.5318 38.4578 24.8529 38.5162 25.0728 38.6505C25.1351 38.6875 25.1935 38.7187 25.2052 38.7187C25.2325 38.7187 25.2286 38.2379 25.2013 38.2204C25.1196 38.1717 24.3644 38.1172 24.162 38.1464Z" fill="white"/>
<path d="M27.0816 38.1523C26.6417 38.2243 26.3478 38.3975 26.231 38.6544C26.1824 38.7615 26.1765 38.7985 26.1765 38.9697C26.1765 39.2169 26.2155 39.3279 26.3575 39.4797C26.5327 39.6665 26.6028 39.7093 27.1711 39.9799C27.5448 40.157 27.6791 40.2485 27.7531 40.3789C27.866 40.5755 27.8484 40.7429 27.7025 40.8986C27.3911 41.2314 26.7526 41.2022 26.196 40.8266C26.1045 40.7662 26.0792 40.7682 26.0987 40.8343C26.124 40.92 26.1765 41.1594 26.1765 41.1866C26.1765 41.2022 26.1902 41.2431 26.2077 41.2781C26.233 41.3307 26.2563 41.3462 26.3478 41.3735C26.558 41.4319 26.8052 41.463 27.0465 41.463C27.5098 41.463 27.8309 41.3443 28.0976 41.0776C28.4265 40.7429 28.4615 40.3186 28.1813 40.0149C28.0548 39.8787 27.9088 39.793 27.2996 39.4972C27.029 39.3668 26.9551 39.322 26.8597 39.2286C26.7779 39.1488 26.7371 39.0904 26.7137 39.0203C26.6845 38.9289 26.6845 38.9152 26.7137 38.8257C26.7643 38.6797 26.813 38.6213 26.9453 38.561C27.1516 38.4637 27.4436 38.454 27.6869 38.5338C27.7901 38.5688 28.0158 38.6895 28.0353 38.7187C28.0703 38.7751 28.084 38.7167 28.084 38.5065C28.084 38.2457 28.0742 38.2223 27.9516 38.2009C27.9127 38.1951 27.8484 38.1815 27.8115 38.1717C27.718 38.1464 27.2023 38.1328 27.0816 38.1523Z" fill="white"/>
<path d="M33.0957 38.1484C32.6519 38.2204 32.249 38.452 31.9687 38.7945C31.7507 39.0612 31.6067 39.4563 31.6067 39.7891C31.6067 39.9156 31.6553 40.2115 31.6962 40.3341C31.8656 40.8382 32.3346 41.2625 32.8816 41.4065C33.082 41.461 33.4791 41.4786 33.6873 41.4435C34.3102 41.3384 34.8026 40.9589 35.0264 40.412C35.1238 40.1745 35.1393 40.0791 35.1374 39.7502C35.1354 39.468 35.1315 39.4388 35.077 39.2792C34.8902 38.74 34.497 38.3644 33.9482 38.2009C33.8002 38.1561 33.7341 38.1484 33.4655 38.1445C33.2942 38.1406 33.1287 38.1425 33.0957 38.1484ZM33.7068 38.5123C34.1019 38.6194 34.4172 38.96 34.5554 39.4291C34.6196 39.649 34.6294 40.013 34.5768 40.2173C34.4737 40.6085 34.2245 40.9063 33.8839 41.0406C33.156 41.3267 32.4222 40.9258 32.1984 40.1181C32.1711 40.0246 32.1633 39.9273 32.1653 39.7307C32.1653 39.4991 32.1711 39.4505 32.2178 39.3123C32.2918 39.0943 32.3716 38.9639 32.5195 38.816C32.7103 38.6252 32.9069 38.5279 33.1735 38.4851C33.3195 38.4637 33.5686 38.4753 33.7068 38.5123Z" fill="white"/>
<path d="M15.1309 38.2769C15.1718 38.3178 15.2087 38.384 15.2321 38.4579C15.2652 38.563 15.2671 38.6643 15.2671 39.7892C15.2671 41.103 15.2613 41.175 15.1659 41.2899C15.1387 41.321 15.1231 41.3541 15.1309 41.3619C15.1484 41.3794 15.8997 41.393 15.8997 41.3755C15.8997 41.3677 15.8783 41.3366 15.853 41.3055C15.7615 41.1965 15.744 41.0797 15.7323 40.486C15.7245 40.1084 15.7265 39.9177 15.742 39.8807L15.7634 39.8282H16.6198H17.4762L17.4976 39.8807C17.5113 39.9158 17.5152 40.1454 17.5113 40.5308L17.5054 41.1264L17.4451 41.2451C17.4101 41.3093 17.3887 41.3677 17.3945 41.3736C17.4003 41.3794 17.5697 41.3853 17.7701 41.3853H18.1341L18.0738 41.2724L18.0115 41.1614L18.0056 39.8379C17.9998 38.3723 17.9979 38.4112 18.1244 38.275L18.1847 38.2127H17.7507H17.3166L17.3848 38.2886C17.4237 38.3314 17.4646 38.3995 17.4782 38.4404C17.5093 38.5416 17.5268 39.4545 17.4976 39.4837C17.4743 39.507 15.7693 39.509 15.7459 39.4856C15.7401 39.4798 15.7362 39.2851 15.7362 39.0535C15.7401 38.491 15.7732 38.3314 15.9055 38.2516L15.9678 38.2127H15.5163H15.0667L15.1309 38.2769Z" fill="white"/>
<path d="M28.8877 38.2769C29.0181 38.4093 29.0181 38.4054 29.0181 39.797C29.0181 41.1731 29.0181 41.1828 28.8994 41.3152L28.841 41.3833H29.2517C29.5631 41.3833 29.6585 41.3775 29.6468 41.3599C29.6409 41.3463 29.6137 41.3093 29.5903 41.2782C29.5047 41.1595 29.4989 41.0894 29.4911 39.8729C29.4833 38.8881 29.4872 38.6993 29.5125 38.563C29.5456 38.3956 29.5942 38.2925 29.6663 38.2419C29.7032 38.2146 29.6643 38.2127 29.2653 38.2127H28.8215L28.8877 38.2769Z" fill="white"/>
<path d="M30.4273 38.2768C30.4954 38.3663 30.4934 38.4656 30.4214 38.5941C30.3883 38.6486 30.1995 38.9113 30.001 39.176C29.8005 39.4407 29.6293 39.6782 29.6176 39.7015C29.602 39.7385 29.6098 39.7638 29.6682 39.8553C29.7071 39.9156 29.7752 40.011 29.82 40.0694C29.8667 40.1278 30.0185 40.3302 30.1567 40.519C30.2969 40.7098 30.4448 40.9102 30.4876 40.9647C30.5324 41.0192 30.5947 41.1029 30.6277 41.1516C30.7465 41.3268 30.9567 41.391 31.3635 41.3813L31.597 41.3754L31.4608 41.2859C31.2603 41.1516 31.091 40.9647 30.6725 40.412C30.4643 40.1395 30.2638 39.8767 30.2248 39.8281C30.073 39.6432 30.075 39.6509 30.1704 39.5322C30.2171 39.4758 30.3046 39.3629 30.3669 39.2831C30.4273 39.2033 30.5071 39.0982 30.546 39.0495C30.5849 39.0009 30.6822 38.8763 30.7659 38.7692C30.8477 38.6641 30.9722 38.5065 31.0404 38.4189C31.1085 38.3333 31.1747 38.2496 31.1844 38.2359C31.198 38.2184 31.1182 38.2126 30.7912 38.2126H30.3786L30.4273 38.2768Z" fill="white"/>
<path d="M35.6416 38.2885C35.6805 38.3313 35.7214 38.3994 35.735 38.4403C35.7545 38.4968 35.7623 38.814 35.7681 39.7677C35.774 41.1496 35.774 41.1613 35.6533 41.3112L35.5968 41.3813L36.5467 41.3851C37.2941 41.3871 37.5023 41.3813 37.5257 41.3618C37.5451 41.3482 37.5919 41.2528 37.6308 41.1516C37.6697 41.0504 37.7203 40.9239 37.7398 40.8713L37.7787 40.7779L37.7145 40.8188C37.5919 40.8966 37.3778 40.9939 37.261 41.0251C37.1228 41.0601 36.9515 41.062 36.5564 41.0309L36.2605 41.0095L36.2372 40.9433C36.2236 40.8986 36.2197 40.5482 36.2255 39.7541C36.2333 38.7907 36.2391 38.6135 36.2683 38.5045C36.3034 38.3663 36.3618 38.2632 36.424 38.234C36.4513 38.2204 36.3228 38.2145 36.0173 38.2145L35.5735 38.2126L35.6416 38.2885Z" fill="white"/>
<path d="M39.2599 38.2691C39.3144 38.3178 39.3242 38.3392 39.3222 38.4112C39.3203 38.4579 39.2969 38.5514 39.2697 38.6214C39.2424 38.6915 39.1393 38.9484 39.0419 39.1956C38.2362 41.2081 38.279 41.1108 38.1233 41.2821C38.0785 41.3288 38.0474 41.3716 38.0532 41.3755C38.059 41.3814 38.2225 41.3833 38.4172 41.3814L38.7733 41.3755L38.7266 41.3171C38.6507 41.2198 38.6682 41.1167 38.8239 40.6943C38.8979 40.4899 38.966 40.305 38.9738 40.2817C39.003 40.1785 39.003 40.1785 39.6025 40.1785C39.91 40.1785 40.1806 40.1844 40.2039 40.1902C40.2273 40.196 40.2526 40.2213 40.2604 40.2447C40.2662 40.2661 40.3479 40.4821 40.4394 40.7235C40.5309 40.9629 40.6049 41.1848 40.6049 41.214C40.6049 41.2432 40.5893 41.286 40.5698 41.3074C40.5504 41.3288 40.5406 41.3522 40.5484 41.3619C40.5562 41.3697 40.7489 41.3775 40.9747 41.3814L41.3854 41.3853L41.2764 41.284C41.1051 41.1205 41.1615 41.2451 40.2545 39.001C40.1008 38.6156 39.9606 38.2808 39.945 38.2555C39.9178 38.2127 39.9081 38.2127 39.5577 38.2127H39.1976L39.2599 38.2691ZM39.692 38.7985C39.7173 38.8667 39.8185 39.1275 39.9159 39.3766C40.0132 39.6258 40.093 39.834 40.093 39.8398C40.093 39.8437 39.8789 39.8476 39.6161 39.8476C39.3534 39.8476 39.1393 39.8437 39.1393 39.8379C39.1393 39.834 39.1957 39.6861 39.2638 39.5129C39.3319 39.3377 39.4293 39.0808 39.4818 38.9426C39.5324 38.8024 39.583 38.6779 39.5947 38.6643C39.62 38.6292 39.6395 38.6545 39.692 38.7985Z" fill="white"/>
<path d="M41.7414 38.2963C41.8971 38.4637 41.8932 38.4345 41.8932 39.7989C41.8913 41.1536 41.8913 41.1575 41.7589 41.2859C41.722 41.3229 41.6947 41.3599 41.7006 41.3696C41.7142 41.393 42.409 41.3891 42.409 41.3657C42.409 41.356 42.3818 41.3171 42.3506 41.2801C42.2494 41.1672 42.2416 41.1088 42.2261 40.523C42.2124 39.9566 42.23 38.9133 42.2533 38.9133C42.2611 38.9133 42.3429 39.0126 42.4363 39.1313C42.5278 39.252 42.6679 39.431 42.7457 39.5303C42.8217 39.6276 42.9715 39.8164 43.0747 39.9488C43.1778 40.0811 43.3297 40.2719 43.4095 40.3731C43.4912 40.4743 43.6119 40.6281 43.6781 40.7137C43.9019 41.0018 44.0946 41.2236 44.2036 41.319C44.3009 41.4066 44.5364 41.5409 44.587 41.5409C44.6006 41.5409 44.6084 41.0718 44.6123 40.0169C44.6181 38.3177 44.6065 38.4559 44.7583 38.2885L44.8264 38.2126H44.4274H44.0264L44.1199 38.3061C44.2658 38.452 44.2639 38.4345 44.2717 39.5751C44.2756 40.1259 44.2736 40.5969 44.2678 40.6222C44.2561 40.6709 44.2269 40.6397 43.8085 40.1103C43.6995 39.9702 43.5282 39.7561 43.4309 39.6335C43.3335 39.5108 43.1642 39.2948 43.0533 39.1566C42.9443 39.0165 42.8041 38.8413 42.7419 38.7673C42.6815 38.6914 42.5608 38.5377 42.4772 38.4228L42.3214 38.2126H41.9925H41.6636L41.7414 38.2963Z" fill="white"/>
<path d="M18.8096 42.738C18.8465 42.7866 18.8835 42.8586 18.8913 42.8995C18.8991 42.9384 18.9069 43.5496 18.9069 44.2561V45.5407L18.8543 45.6478C18.8251 45.7062 18.7862 45.7743 18.7687 45.7976L18.7375 45.8424H19.3487C20.028 45.8424 20.2966 45.8191 20.5418 45.7354C20.8649 45.6283 21.0907 45.4823 21.2892 45.2585C21.4469 45.0794 21.5403 44.9062 21.6143 44.661C21.6571 44.515 21.6649 44.4527 21.6668 44.2269C21.6668 43.789 21.5637 43.4873 21.3204 43.2148C21.1608 43.0377 21.0304 42.9365 20.8454 42.8509C20.499 42.6913 20.1993 42.6504 19.3604 42.6504H18.7414L18.8096 42.738ZM20.2265 43.0319C20.5262 43.098 20.7948 43.2713 20.9311 43.4873C21.114 43.7773 21.1802 44.2659 21.0849 44.6318C20.9467 45.1612 20.4406 45.4882 19.7438 45.4979C19.5667 45.4998 19.4772 45.494 19.446 45.4765L19.4032 45.4512L19.4071 44.2503L19.4129 43.0513L19.4908 43.028C19.6076 42.991 20.0591 42.9949 20.2265 43.0319Z" fill="white"/>
<path d="M22.8774 42.6971C22.9436 42.7652 22.9572 42.8353 22.9222 42.9618C22.8891 43.0805 21.9743 45.3714 21.9043 45.5115C21.8576 45.603 21.7252 45.7529 21.6415 45.8074C21.5948 45.8385 21.6162 45.8405 22.0308 45.8405L22.4687 45.8424L22.4123 45.8054C22.2663 45.7081 22.2682 45.6088 22.42 45.2098C22.4609 45.1028 22.5232 44.9354 22.5582 44.84C22.5933 44.7427 22.6303 44.6532 22.64 44.6396C22.6556 44.6201 22.786 44.6162 23.2492 44.6201C23.5723 44.624 23.8428 44.6318 23.8506 44.6396C23.874 44.661 24.2068 45.5407 24.2204 45.6147C24.2321 45.675 24.2263 45.6925 24.162 45.7626L24.09 45.8424H24.563L25.0379 45.8405L24.9795 45.7996C24.8861 45.7315 24.7849 45.6166 24.7323 45.5174C24.6856 45.4337 24.345 44.6045 23.7903 43.2285C23.6793 42.9501 23.5781 42.7088 23.5684 42.6874C23.5489 42.6523 23.5217 42.6504 23.1889 42.6504H22.8307L22.8774 42.6971ZM23.4789 43.6664C23.6034 43.9836 23.7046 44.2581 23.7046 44.2775C23.7046 44.2989 23.693 44.3067 23.6696 44.3009C23.6501 44.2951 23.5879 44.297 23.5295 44.3067C23.4341 44.3184 22.7918 44.2931 22.7723 44.2756C22.7646 44.2659 22.7996 44.1685 22.9456 43.7987C23.0117 43.6333 23.0974 43.4134 23.1344 43.3121C23.2005 43.1389 23.2356 43.0689 23.2492 43.0825C23.2511 43.0864 23.3562 43.3491 23.4789 43.6664Z" fill="white"/>
<path d="M25.4058 42.7068C25.435 42.738 25.4758 42.8158 25.4972 42.8839C25.5323 42.9968 25.5342 43.0727 25.5342 44.2464C25.5342 45.4356 25.5323 45.494 25.4953 45.6147C25.468 45.7042 25.4369 45.7568 25.396 45.7918L25.3357 45.8424H26.3089C27.0933 45.8424 27.2859 45.8366 27.3035 45.8171C27.3151 45.8015 27.3463 45.7295 27.3735 45.6556C27.4008 45.5816 27.4514 45.457 27.4825 45.3792C27.5156 45.2994 27.537 45.2293 27.5312 45.2235C27.5253 45.2176 27.5 45.2313 27.4747 45.2527C27.4008 45.3208 27.2178 45.4142 27.0777 45.4531C26.9804 45.4823 26.885 45.4921 26.7137 45.4921C26.5016 45.4921 26.0403 45.459 26.0228 45.4415C26.0052 45.4259 26.0208 43.0416 26.0403 42.9443C26.0597 42.8353 26.0909 42.773 26.1629 42.6932L26.2018 42.6504H25.7775H25.3513L25.4058 42.7068Z" fill="white"/>
<path d="M28.9986 42.664C28.9986 42.6718 29.018 42.6971 29.0433 42.7243C29.1329 42.8197 29.1212 42.8586 28.5801 44.2094C28.3037 44.8965 28.0526 45.5018 28.0215 45.5543C27.9904 45.605 27.9144 45.6906 27.8541 45.7451L27.7451 45.8424H28.1616H28.5782L28.5256 45.7879C28.4439 45.7042 28.4263 45.6303 28.4594 45.5174C28.5295 45.2858 28.7708 44.6629 28.8 44.6396C28.8234 44.622 28.9694 44.6162 29.3762 44.6162C29.6778 44.6162 29.9406 44.622 29.964 44.6279C29.9873 44.6337 30.0165 44.6707 30.034 44.7194C30.0515 44.7641 30.1294 44.9627 30.2053 45.1612C30.4077 45.6867 30.4097 45.6886 30.2793 45.7918L30.215 45.8424H30.6783C30.9313 45.8424 31.1396 45.8366 31.1396 45.8268C31.1396 45.8191 31.0909 45.7665 31.0306 45.7081C30.8982 45.5777 30.8301 45.4415 30.544 44.733C30.4311 44.4488 30.2676 44.0459 30.182 43.8377C30.0963 43.6294 29.9912 43.3705 29.9484 43.2635C29.9056 43.1564 29.8316 42.9754 29.7829 42.8586L29.6954 42.6504H29.347C29.1562 42.6504 28.9986 42.6562 28.9986 42.664ZM29.5903 43.5691C29.8219 44.1705 29.8589 44.2678 29.8491 44.2775C29.8336 44.2931 29.5377 44.3106 29.3684 44.3067C28.9149 44.2931 28.911 44.2931 28.9168 44.262C28.9188 44.2445 28.9733 44.1004 29.0355 43.9428C29.0978 43.7832 29.199 43.5243 29.2613 43.3647C29.3236 43.207 29.3801 43.0786 29.3859 43.0786C29.3937 43.0786 29.4852 43.3005 29.5903 43.5691Z" fill="white"/>
<path d="M31.523 42.7127C31.5561 42.7477 31.6008 42.8158 31.6203 42.8645C31.6534 42.9462 31.6553 43.0397 31.6553 44.2561V45.5602L31.6086 45.6633C31.5833 45.7198 31.5405 45.784 31.5133 45.8035L31.4646 45.8424H31.887C32.1186 45.8424 32.3074 45.8346 32.3074 45.8249C32.3074 45.8152 32.2937 45.7976 32.2762 45.7821C32.2607 45.7684 32.2276 45.7217 32.2042 45.6789C32.1614 45.5991 32.1614 45.5913 32.1555 44.2931L32.1497 42.9871L32.2976 42.9618C32.4884 42.9287 32.6441 42.9443 32.792 43.0105C33.0003 43.1039 33.1034 43.2654 33.1054 43.499C33.1054 43.6644 33.0528 43.7871 32.9263 43.9097C32.8173 44.0148 32.7297 44.0615 32.4981 44.1374C32.3911 44.1724 32.3054 44.2075 32.3054 44.2191C32.3074 44.2289 32.3833 44.3554 32.4767 44.4994C32.6519 44.7739 32.8796 45.0814 33.0664 45.2974C33.1268 45.3675 33.2183 45.4784 33.2689 45.5446C33.4479 45.7821 33.6036 45.8424 34.0396 45.8424H34.3004L34.1545 45.7412C33.8859 45.5543 33.6873 45.3675 33.4985 45.132C33.4304 45.0463 33.3156 44.9023 33.2416 44.8108C32.8952 44.3826 32.8329 44.297 32.8465 44.2834C32.8543 44.2756 32.9127 44.2522 32.973 44.2308C33.2105 44.1471 33.4168 43.9642 33.5199 43.7442C33.5764 43.6275 33.5822 43.5944 33.5822 43.4289C33.5822 43.2654 33.5764 43.2304 33.5258 43.1234C33.4577 42.9735 33.3234 42.8431 33.1579 42.7672C32.9516 42.6718 32.7531 42.6504 32.0699 42.6504H31.4626L31.523 42.7127Z" fill="white"/>
<path d="M34.6198 42.7301C34.7735 42.8819 34.7696 42.8469 34.7696 44.2561V45.5017L34.7229 45.6049C34.6957 45.6633 34.6431 45.7353 34.5964 45.7742L34.5166 45.8423H34.9331H35.3496L35.2679 45.7528C35.1122 45.5874 35.12 45.6516 35.1141 44.4351C35.1102 43.7169 35.1141 43.351 35.1278 43.351C35.1394 43.351 35.1725 43.388 35.2056 43.4347C35.2368 43.4814 35.3146 43.5807 35.3769 43.6566C35.4392 43.7306 35.5774 43.9057 35.6844 44.042C35.7915 44.1802 35.9491 44.3806 36.0348 44.4896C36.1204 44.5986 36.2625 44.7777 36.3501 44.8906C36.4377 45.0015 36.5447 45.1358 36.5875 45.1903C36.6323 45.2429 36.7296 45.3694 36.8055 45.4667C36.9982 45.7197 37.187 45.8754 37.4128 45.9689L37.4867 46L37.4731 44.729C37.4556 43.0396 37.4712 42.8742 37.6561 42.7146L37.7281 42.6503H37.3155H36.9028L36.9943 42.7418C37.1442 42.8917 37.1403 42.8683 37.1461 44.0556C37.15 44.6317 37.1461 45.1027 37.1383 45.1027C37.1306 45.1008 37.0897 45.056 37.0488 44.9996C37.006 44.9431 36.9203 44.8361 36.86 44.7621C36.7977 44.6862 36.6576 44.511 36.5466 44.3709C36.0406 43.7325 35.6941 43.2946 35.5774 43.1486C35.5073 43.063 35.3944 42.915 35.3263 42.8197L35.2037 42.6503H34.8728H34.5419L34.6198 42.7301Z" fill="white"/>
<path d="M39.1236 42.7029C39.2248 42.8119 39.217 42.8703 39.0263 43.3413C38.9581 43.5126 38.744 44.0459 38.5514 44.5286C38.3587 45.0094 38.1738 45.4551 38.1426 45.5154C38.1095 45.5777 38.0356 45.6711 37.9791 45.7256C37.9207 45.7801 37.874 45.8288 37.874 45.8346C37.874 45.8385 38.055 45.8424 38.275 45.8424H38.6759L38.6136 45.7704C38.5552 45.7042 38.5514 45.6925 38.5591 45.5816C38.565 45.496 38.6117 45.348 38.7187 45.0541C38.8024 44.8284 38.8803 44.6396 38.8939 44.6318C38.9056 44.624 39.1703 44.6162 39.4817 44.6162C39.9041 44.6162 40.0559 44.622 40.0792 44.6415C40.124 44.6726 40.4413 45.494 40.4568 45.6147C40.4666 45.6984 40.4627 45.7139 40.416 45.7626L40.3634 45.8171L40.4082 45.8307C40.4335 45.8366 40.634 45.8424 40.8578 45.8424H41.2607L41.1381 45.7198C40.9862 45.5699 40.9765 45.5485 40.5697 44.5481C39.8846 42.8567 39.8204 42.7049 39.797 42.6737C39.7815 42.6562 39.6822 42.6504 39.4253 42.6504H39.073L39.1236 42.7029ZM39.5323 43.1701C39.6102 43.353 39.9566 44.2678 39.9566 44.2873C39.9566 44.3028 39.9313 44.3067 39.8846 44.297C39.8437 44.2912 39.6335 44.2853 39.4175 44.2853C39.0924 44.2853 39.0224 44.2814 39.0224 44.2581C39.0224 44.2425 39.071 44.1043 39.1314 43.9506C39.1917 43.7987 39.2618 43.6158 39.289 43.5457C39.3143 43.4756 39.3435 43.4017 39.3533 43.3803C39.4019 43.2713 39.4311 43.1876 39.4311 43.1584C39.4311 43.1214 39.47 43.0766 39.4895 43.0883C39.4973 43.0922 39.5167 43.1292 39.5323 43.1701Z" fill="white"/>
</svg>
