<svg width="77" height="77" viewBox="0 0 77 77" fill="none" xmlns="http://www.w3.org/2000/svg">
<path d="M7.87821 70.63C6.86421 70.63 6.00621 70.4393 5.30421 70.058C4.61088 69.6766 4.08221 69.135 3.71821 68.433C3.35421 67.731 3.17221 66.899 3.17221 65.937C3.17221 64.9663 3.35855 64.13 3.73121 63.428C4.10388 62.7173 4.64121 62.1713 5.34321 61.79C6.04521 61.4 6.88588 61.205 7.86521 61.205C8.50655 61.205 9.10888 61.3003 9.67221 61.491C10.2355 61.673 10.7035 61.9286 11.0762 62.258L10.5172 63.558C10.1099 63.2373 9.69388 63.0076 9.26921 62.869C8.84455 62.7303 8.37655 62.661 7.86521 62.661C6.89455 62.661 6.15788 62.9426 5.65521 63.506C5.16121 64.0693 4.91421 64.8796 4.91421 65.937C4.91421 67.003 5.16988 67.8133 5.68121 68.368C6.19255 68.9226 6.95088 69.2 7.95621 69.2C8.24221 69.2 8.53255 69.1783 8.82721 69.135C9.13055 69.083 9.42955 69.0093 9.72422 68.914V66.782H7.61822V65.547H11.1152V69.954C10.6905 70.162 10.1879 70.3266 9.60721 70.448C9.02655 70.5693 8.45021 70.63 7.87821 70.63Z" fill="white"/>
<path d="M14.0935 70.5V61.335H20.1905V62.661H15.6925V65.183H19.9045V66.509H15.6925V69.174H20.1905V70.5H14.0935Z" fill="white"/>
<path d="M26.9956 70.63C26.1116 70.63 25.336 70.435 24.6686 70.045C24.01 69.655 23.4986 69.109 23.1346 68.407C22.7706 67.6963 22.5886 66.8643 22.5886 65.911C22.5886 64.949 22.7706 64.117 23.1346 63.415C23.4986 62.713 24.01 62.1713 24.6686 61.79C25.3273 61.4 26.103 61.205 26.9956 61.205C27.8883 61.205 28.664 61.4 29.3226 61.79C29.9813 62.1713 30.4926 62.713 30.8566 63.415C31.2206 64.117 31.4026 64.9446 31.4026 65.898C31.4026 66.86 31.2206 67.6963 30.8566 68.407C30.4926 69.109 29.9813 69.655 29.3226 70.045C28.664 70.435 27.8883 70.63 26.9956 70.63ZM26.9956 69.2C27.8363 69.2 28.4906 68.9096 28.9586 68.329C29.4266 67.7483 29.6606 66.9423 29.6606 65.911C29.6606 64.871 29.4266 64.065 28.9586 63.493C28.4993 62.921 27.845 62.635 26.9956 62.635C26.155 62.635 25.5006 62.921 25.0326 63.493C24.5646 64.065 24.3306 64.871 24.3306 65.911C24.3306 66.9423 24.5646 67.7483 25.0326 68.329C25.5006 68.9096 26.155 69.2 26.9956 69.2Z" fill="white"/>
<path d="M37.3037 70.63C36.5843 70.63 35.917 70.539 35.3017 70.357C34.6863 70.1663 34.1663 69.9106 33.7417 69.59L34.2487 68.277C34.6733 68.5803 35.137 68.8143 35.6397 68.979C36.151 69.1436 36.7057 69.226 37.3037 69.226C37.9883 69.226 38.4867 69.1133 38.7987 68.888C39.1107 68.654 39.2667 68.355 39.2667 67.991C39.2667 67.6876 39.154 67.4493 38.9287 67.276C38.712 67.1026 38.335 66.9596 37.7977 66.847L36.3677 66.548C34.7383 66.2013 33.9237 65.365 33.9237 64.039C33.9237 63.467 34.0753 62.9686 34.3787 62.544C34.682 62.1193 35.1023 61.79 35.6397 61.556C36.177 61.322 36.7967 61.205 37.4987 61.205C38.1227 61.205 38.7076 61.3003 39.2537 61.491C39.7997 61.673 40.2547 61.933 40.6187 62.271L40.1117 63.519C39.3923 62.9123 38.517 62.609 37.4857 62.609C36.8877 62.609 36.4197 62.7346 36.0817 62.986C35.7437 63.2373 35.5746 63.5666 35.5746 63.974C35.5746 64.286 35.6786 64.5373 35.8867 64.728C36.0947 64.91 36.45 65.053 36.9527 65.157L38.3697 65.456C39.2277 65.638 39.8647 65.924 40.2807 66.314C40.7053 66.704 40.9177 67.224 40.9177 67.874C40.9177 68.42 40.7703 68.901 40.4757 69.317C40.181 69.733 39.7607 70.058 39.2147 70.292C38.6773 70.5173 38.0403 70.63 37.3037 70.63Z" fill="white"/>
<path d="M45.4154 70.5V62.726H42.2694V61.335H50.2254V62.726H47.0794V70.5H45.4154Z" fill="white"/>
<path d="M54.6787 70.5V66.288L51.1557 61.335H53.0927L55.5367 64.806L57.9937 61.335H59.8527L56.3427 66.301V70.5H54.6787Z" fill="white"/>
<path d="M43.5575 19.9464C44.4686 18.4884 46.5734 16.4148 48.054 15.5409C49.5346 14.667 51.2038 14.1622 52.9206 14.0693C54.6373 13.9763 56.3513 14.2978 57.9176 15.0067C59.4839 15.7156 60.8567 16.791 61.9199 18.1421C62.9831 19.4932 63.7056 21.0803 64.0262 22.7694C64.3469 24.4585 64.2564 26.2 63.7624 27.8467C63.2683 29.4935 62.3852 30.9972 61.1877 32.2308C59.9901 33.4644 59.037 33.868 57.4056 34.4107L56.7143 30.125L53.5 24.7679L48.6785 21.5536L43.5575 19.9464Z" fill="#FCB641"/>
<path d="M39.3478 19.6716C44.0894 19.6716 49.6114 20.8793 52.9642 24.2322C56.7142 27.9822 58.3214 31.1964 57.7856 39.2322C59.9285 39.7679 60.4643 41.375 61 42.4464C61.5357 43.5179 61.5357 45.6607 61.5357 47.2679C61.5357 48.875 60.9999 50.4822 59.9285 51.5536C57.983 53.4991 57.5277 53.4356 54.7763 53.4356H7.70806C5.95189 53.4356 4.20617 52.713 2.96437 51.4712C1.72256 50.2295 0.999973 48.4837 0.999973 46.7275C0.999973 44.9713 1.72256 43.2265 2.96437 41.9847C4.19853 40.7505 5.93053 40.03 7.67574 40.0212C8.0163 36.8393 9.45784 33.7767 11.7224 31.5121C14.3302 28.9043 17.9953 27.3859 21.6832 27.3859C22.5786 27.3859 23.472 27.4777 24.3498 27.6506C24.9922 26.6919 25.7238 25.7935 26.5404 24.977C29.8933 21.6241 34.6061 19.6716 39.3478 19.6716Z" fill="white"/>
<path d="M53.125 11.6429L53.125 2" stroke="#FCB641" stroke-width="1.25"/>
<path d="M62.485 15.5149L69.3035 8.69641" stroke="#FCB641" stroke-width="1.25"/>
<path d="M66.3571 24.9286L76 24.9286" stroke="#FCB641" stroke-width="1.25"/>
<path d="M62.5386 34.4107L69.3572 41.2292" stroke="#FCB641" stroke-width="1.25"/>
<path d="M37.0386 8.69637L43.8571 15.5149" stroke="#FCB641" stroke-width="1.25"/>
</svg>
