<svg width="75" height="39" viewBox="0 0 75 39" fill="none" xmlns="http://www.w3.org/2000/svg">
<path fill-rule="evenodd" clip-rule="evenodd" d="M54.0278 0.916174L75 37.613H64.375L62.0694 33.6248H51.5L55.1945 27.1579H58.375L54.0139 19.4862L49.4444 27.4487C48.7264 28.695 48 29.789 47.2917 30.7306C43.8056 35.3143 38.1528 38.25 31.875 38.25C21.3472 38.25 12.7083 29.9413 12.7083 19.6939C12.7083 9.44646 21.2778 1.13774 31.875 1.13774C35.4722 1.13774 38.7083 2.08493 41.5278 3.6719L37.0139 11.5929C35.4555 10.6808 33.682 10.1981 31.875 10.1942C26.4861 10.1942 22.125 14.4317 22.125 19.6523C22.125 24.8868 26.4861 29.1104 31.875 29.1104C34.8056 29.1104 37.2083 27.9153 38.9583 26.1747C39.7292 25.4283 40.5972 24.1806 40.8611 23.7374L54 0.75L54.0278 0.916174ZM0 37.613V1.88552H9.34722V37.613H0Z" fill="#E3000B"/>
</svg>
