<svg width="60" height="61" viewBox="0 0 60 61" fill="none" xmlns="http://www.w3.org/2000/svg">
<path d="M57.45 30C58.8583 30 60.0113 31.1438 59.8917 32.547C59.4627 37.5822 57.7669 42.4424 54.9441 46.6671C51.6476 51.6006 46.9623 55.4458 41.4805 57.7164C35.9987 59.987 29.9667 60.5811 24.1473 59.4236C18.3279 58.266 12.9824 55.4088 8.7868 51.2132C4.59122 47.0176 1.734 41.6721 0.576442 35.8527C-0.581115 30.0333 0.0129851 24.0013 2.28361 18.5195C4.55424 13.0377 8.39942 8.35235 13.3329 5.05591C17.5576 2.23308 22.4178 0.53731 27.453 0.108299C28.8562 -0.0112599 30 1.14167 30 2.55C30 3.95833 28.8553 5.08648 27.4544 5.23045C23.4293 5.6441 19.5519 7.03421 16.1663 9.29641C12.0715 12.0325 8.88002 15.9213 6.9954 20.4712C5.11078 25.0211 4.61767 30.0276 5.57845 34.8577C6.53922 39.6879 8.91071 44.1246 12.393 47.607C15.8754 51.0893 20.3121 53.4608 25.1423 54.4216C29.9724 55.3823 34.9789 54.8892 39.5288 53.0046C44.0787 51.12 47.9675 47.9285 50.7036 43.8337C52.9658 40.4481 54.3559 36.5707 54.7696 32.5456C54.9135 31.1447 56.0417 30 57.45 30Z" fill="white"/>
<path d="M16.5 26.5L27.5 38L55.5 10.5" stroke="white" stroke-width="5" stroke-linecap="round" stroke-linejoin="round"/>
</svg>
