<svg width="60" height="60" viewBox="0 0 60 60" fill="none" xmlns="http://www.w3.org/2000/svg">
<circle cx="30" cy="30" r="30" fill="#256265"/>
<path d="M26.4444 39.4089L31.3981 45.8858C30.7921 45.9765 30.1795 46.0135 29.5673 45.9963C26.0175 45.996 22.5743 44.7491 19.8086 42.4622C17.043 40.1753 15.1208 36.9857 14.3609 33.4223C13.601 29.8589 14.0489 26.1356 15.6305 22.8696C17.212 19.6037 20.2891 16.9912 23.5135 15.4653V29.1111C23.5133 29.6032 23.5135 29.9979 23.9459 30.4424C24.3784 30.8868 24.7644 30.8883 25.2432 30.8889H30.1504C30.3221 30.8892 30.4899 30.9414 30.633 31.0388C30.7761 31.1362 30.8882 31.2747 30.9555 31.437C31.0228 31.5993 31.0422 31.7784 31.0114 31.9519C30.9806 32.1255 30.9009 32.2859 30.7822 32.4134L26.551 37.072C26.261 37.3823 26.0905 37.7901 26.0709 38.2199C26.0513 38.6496 26.184 39.0721 26.4444 39.4089Z" fill="white"/>
<path d="M45.9999 30.0054C46.0006 33.1307 45.0689 36.1878 43.3198 38.7994C41.5707 41.4111 38.664 43.8721 35.7404 45.1111L31.5031 39.7034C31.1984 39.334 31.0377 38.8702 31.05 38.3951C31.0623 37.92 31.2467 37.4648 31.5702 37.1111L36.6666 30.8701C37.0238 30.4869 37.2222 29.9866 37.223 29.4673C37.2245 29.188 37.1696 28.9112 37.0616 28.6528C36.9536 28.3944 36.7945 28.1595 36.5936 27.9617C36.3926 27.7639 36.1538 27.6071 35.8908 27.5003C35.6278 27.3935 35.3459 27.3389 35.0613 27.3395H28.785C28.332 27.3333 27.8788 27.3395 27.4259 26.895C26.973 26.4504 26.9729 26 26.9729 25.5609V14.1852C29.2973 13.8353 31.9017 13.9824 34.1627 14.6165C36.4237 15.2507 38.5184 16.3567 40.3034 17.8591C42.0884 19.3615 43.5216 21.2246 44.5048 23.321C45.488 25.4174 45.998 27.6976 45.9999 30.0054Z" fill="white"/>
</svg>
