<svg width="60" height="60" viewBox="0 0 60 60" fill="none" xmlns="http://www.w3.org/2000/svg">
<circle cx="30" cy="30" r="30" fill="#EE7700"/>
<g clip-path="url(#clip0_811_1881)">
<path d="M11.2472 26.8914C12.2919 26.8914 12.5366 27.1267 12.1695 29.0373C11.8119 30.9667 11.4825 31.1926 10.4378 31.1926C9.36482 31.1926 9.13894 30.9573 9.506 29.0373C9.86364 27.1267 10.1742 26.8914 11.2472 26.8914ZM10.2589 32.1056C12.4895 32.1056 13.0166 31.155 13.4119 29.0279C13.8166 26.9197 13.6378 25.9879 11.4166 25.9879C9.186 25.9879 8.64953 26.9197 8.25423 29.0279C7.85894 31.155 8.03776 32.1056 10.2589 32.1056Z" fill="white"/>
<path d="M21.9295 30.4047C21.7977 31.0823 21.6566 31.1764 20.9413 31.1764C20.2166 31.1764 20.0848 31.0823 20.2166 30.4047L20.706 27.807C20.7154 27.7506 20.6683 27.6941 20.5742 27.6941H19.6801C19.586 27.6941 19.5201 27.7412 19.5107 27.807L19.0025 30.4988C18.8236 31.4588 19.0307 32.0329 20.7907 32.0329C22.5413 32.0329 22.9554 31.4588 23.1342 30.4988L23.6425 27.807C23.6519 27.7506 23.6236 27.6941 23.5107 27.6941H22.5883C22.466 27.6941 22.4283 27.7412 22.4189 27.807L21.9295 30.4047Z" fill="white"/>
<path d="M26.2589 28.4471C26.8518 28.4471 27.0871 28.513 27.2754 28.513C27.4071 28.513 27.4636 28.4659 27.473 28.3624L27.5483 27.9765C27.5954 27.7224 27.4448 27.6377 26.2589 27.6377C24.913 27.6377 24.3765 27.9012 24.2071 28.8142C24.0565 29.6142 24.4989 29.793 24.9977 30L25.553 30.2259C25.9671 30.3953 26.1083 30.4424 26.0518 30.7436C25.9859 31.073 25.7977 31.1859 25.1295 31.1859C24.4424 31.1859 24.0848 31.0918 23.9436 31.0918C23.8683 31.0918 23.8024 31.1295 23.793 31.1953L23.7083 31.6565C23.6706 31.8353 23.6895 31.8918 23.8212 31.9389C23.9906 32.0048 24.4706 32.0424 25.0259 32.0424C26.5318 32.0424 27.0871 31.5812 27.2565 30.6871C27.3883 29.9624 27.1059 29.7836 26.6165 29.5765L26.0048 29.3318C25.5248 29.1342 25.3365 29.0965 25.393 28.8236C25.4495 28.513 25.6471 28.4471 26.2589 28.4471Z" fill="white"/>
<path d="M16.5742 27.6565C15.6142 27.6565 15.1154 27.8259 14.7671 28.0988C14.4189 28.3718 14.2495 28.833 14.0707 29.7553L13.3083 33.7836C13.2989 33.84 13.3271 33.8965 13.4401 33.8965H14.3342C14.4566 33.8965 14.4942 33.8494 14.5036 33.7836L14.8424 31.9765C14.8519 31.9388 14.8707 31.9294 14.9177 31.9294C15.0495 31.9294 15.1907 32.0518 15.9248 32.0518C17.1577 32.0518 17.9954 31.5436 18.3248 29.8118C18.6354 28.1836 18.353 27.6565 16.5742 27.6565ZM17.0824 29.8118C16.8754 30.8847 16.5836 31.1859 15.9248 31.1859C15.5954 31.1859 15.3224 31.1483 15.2095 31.0353C15.0871 30.9036 15.106 30.6024 15.2377 29.9153C15.3507 29.3224 15.4448 28.8894 15.6236 28.7388C15.793 28.5883 16.066 28.5318 16.4236 28.5318C17.0824 28.5224 17.2801 28.7388 17.0824 29.8118Z" fill="white"/>
<path d="M30.7389 31.2424C29.5247 31.2424 29.1483 30.96 29.5059 29.04C29.8636 27.1294 30.3812 26.8659 31.5953 26.8659C32 26.8659 32.7906 26.9506 32.7906 26.9506C32.8659 26.9506 32.9318 26.9035 32.9412 26.8565L33.0447 26.2918C33.0636 26.1882 33.0259 26.1224 32.8942 26.0941C32.6683 26.0471 32.2918 26 31.633 26C29.2518 26 28.6589 26.8565 28.2447 29.04C27.8494 31.1576 28.1036 32.1176 30.4847 32.1176C31.1906 32.1176 31.5483 32.08 31.7742 32.0141C31.9436 31.9671 32 31.8729 32.0283 31.7318L32.113 31.2706C32.1224 31.2141 32.0753 31.1671 32 31.1671C31.8024 31.1576 31.4824 31.2424 30.7389 31.2424Z" fill="white"/>
<path d="M35.5483 30.0283C35.6142 30.0283 35.6518 30.0565 35.6424 30.113L35.5765 30.4424C35.4824 30.96 35.0777 31.28 34.3248 31.28C33.986 31.28 33.8071 31.1671 33.9107 30.6494C34.0236 30.0753 34.2212 30.0283 34.8895 30.0283H35.5483ZM34.8895 28.4565C35.6707 28.4565 35.9248 28.5883 35.8118 29.2C35.793 29.2753 35.7554 29.313 35.6424 29.313H34.7671C33.3271 29.313 32.9224 29.7271 32.753 30.64C32.5648 31.6189 32.8189 32.0424 34.1177 32.0424C34.5412 32.0424 35.0965 31.9953 35.5483 31.6C35.5671 31.5812 35.586 31.5718 35.5954 31.5718C35.6048 31.5718 35.6048 31.5812 35.6236 31.6L35.7271 31.7883C35.8212 31.9577 35.8589 31.9953 36.0565 31.9953H36.3295C36.4236 31.9953 36.4895 31.9483 36.4989 31.8824L36.9412 29.5483C37.2048 28.1742 36.9695 27.6471 35.1342 27.6471C34.3907 27.6471 33.9765 27.7318 33.7883 27.7977C33.5812 27.8636 33.5342 27.9483 33.506 28.0894L33.4401 28.4283C33.4118 28.5694 33.4401 28.5977 33.553 28.5977C33.713 28.6165 34.2401 28.4565 34.8895 28.4565Z" fill="white"/>
<path d="M43.5955 27.0447H44.4896C44.5837 27.0447 44.6496 26.9977 44.659 26.9318L44.819 26.0941C44.8284 26.0377 44.7814 25.9812 44.6872 25.9812H43.7931C43.699 25.9812 43.6331 26.0283 43.6237 26.0941L43.4637 26.9318C43.4543 26.9883 43.5014 27.0447 43.5955 27.0447ZM42.6637 31.9953H43.5578C43.6519 31.9953 43.7178 31.9483 43.7272 31.8824L44.499 27.8165C44.5084 27.76 44.4614 27.7036 44.3672 27.7036H43.4731C43.379 27.7036 43.3131 27.7506 43.3037 27.8165L42.5319 31.8824C42.5225 31.9483 42.5696 31.9953 42.6637 31.9953Z" fill="white"/>
<path d="M50.9932 30.0283C51.059 30.0283 51.0967 30.0565 51.0873 30.113L51.0214 30.4424C50.9273 30.96 50.5226 31.28 49.7696 31.28C49.4308 31.28 49.252 31.1671 49.3555 30.6494C49.4685 30.0753 49.6661 30.0283 50.3343 30.0283H50.9932ZM50.3249 28.4565C51.1061 28.4565 51.3602 28.5883 51.2473 29.2C51.2285 29.2753 51.1908 29.313 51.0779 29.313H50.2026C48.7626 29.313 48.3579 29.7271 48.179 30.64C47.9908 31.6189 48.2449 32.0424 49.5437 32.0424C49.9673 32.0424 50.5226 31.9953 50.9743 31.6C50.9837 31.5812 51.012 31.5718 51.0214 31.5718C51.0308 31.5718 51.0308 31.5812 51.0496 31.6L51.1532 31.7883C51.2473 31.9577 51.2849 31.9953 51.4826 31.9953H51.7555C51.8496 31.9953 51.9155 31.9483 51.9343 31.8824L52.3767 29.5483C52.6402 28.1742 52.4049 27.6471 50.5696 27.6471C49.8261 27.6471 49.412 27.7318 49.2237 27.7977C49.0167 27.8636 48.9696 27.9483 48.9414 28.0894L48.8755 28.4283C48.8473 28.5694 48.8755 28.5977 48.9885 28.5977C49.1485 28.6165 49.6849 28.4565 50.3249 28.4565Z" fill="white"/>
<path d="M40.3013 27.6565C39.3413 27.6565 38.8424 27.8259 38.4942 28.0988C38.146 28.3718 37.9766 28.833 37.7977 29.7553L37.0354 33.7836C37.026 33.84 37.0542 33.8965 37.1671 33.8965H38.0613C38.1836 33.8965 38.2213 33.8494 38.2307 33.7836L38.5695 31.9765C38.5789 31.9388 38.5977 31.9294 38.6448 31.9294C38.7766 31.9294 38.9177 32.0518 39.6518 32.0518C40.8848 32.0518 41.7224 31.5436 42.0518 29.8118C42.3624 28.1836 42.0801 27.6565 40.3013 27.6565ZM40.8095 29.8118C40.6024 30.8847 40.3107 31.1859 39.6518 31.1859C39.3224 31.1859 39.0495 31.1483 38.9366 31.0353C38.8142 30.9036 38.833 30.6024 38.9648 29.9153C39.0777 29.3224 39.1718 28.8894 39.3507 28.7388C39.5201 28.5883 39.793 28.5318 40.1507 28.5318C40.8095 28.5224 41.0071 28.7388 40.8095 29.8118Z" fill="white"/>
<path d="M46.7577 31.1859C46.1836 31.1859 46.0989 30.9883 46.1554 30.6871L46.5318 28.6824C46.5413 28.6354 46.5883 28.6071 46.6542 28.6071H47.8118C47.8777 28.6071 47.9248 28.5789 47.9342 28.5318L48.066 27.8542C48.0754 27.8071 48.0377 27.7789 47.9718 27.7789H46.8801C46.7389 27.7789 46.6824 27.7412 46.6918 27.6377L46.7201 26.9695C46.7201 26.8377 46.6824 26.7906 46.513 26.7906H45.8448C45.7507 26.7906 45.6848 26.8377 45.6754 26.9036L44.9413 30.7907C44.7813 31.6283 45.026 32.0612 46.4283 32.0612C47.3318 32.0612 47.4542 31.9295 47.4918 31.7695L47.586 31.2707C47.6048 31.1954 47.5389 31.1483 47.4636 31.1483C47.313 31.1389 47.0871 31.1859 46.7577 31.1859Z" fill="white"/>
<path d="M50.9932 30.0283C51.059 30.0283 51.0967 30.0565 51.0873 30.113L51.0214 30.4424C50.9273 30.96 50.5226 31.28 49.7696 31.28C49.4308 31.28 49.252 31.1671 49.3555 30.6494C49.4685 30.0753 49.6661 30.0283 50.3343 30.0283H50.9932ZM50.3249 28.4565C51.1061 28.4565 51.3602 28.5883 51.2473 29.2C51.2285 29.2753 51.1908 29.313 51.0779 29.313H50.2026C48.7626 29.313 48.3579 29.7271 48.179 30.64C47.9908 31.6189 48.2449 32.0424 49.5437 32.0424C49.9673 32.0424 50.5226 31.9953 50.9743 31.6C50.9837 31.5812 51.012 31.5718 51.0214 31.5718C51.0308 31.5718 51.0308 31.5812 51.0496 31.6L51.1532 31.7883C51.2473 31.9577 51.2849 31.9953 51.4826 31.9953H51.7555C51.8496 31.9953 51.9155 31.9483 51.9343 31.8824L52.3767 29.5483C52.6402 28.1742 52.4049 27.6471 50.5696 27.6471C49.8261 27.6471 49.412 27.7318 49.2237 27.7977C49.0167 27.8636 48.9696 27.9483 48.9414 28.0894L48.8755 28.4283C48.8473 28.5694 48.8755 28.5977 48.9885 28.5977C49.1485 28.6165 49.6849 28.4565 50.3249 28.4565Z" fill="white"/>
</g>
<defs>
<clipPath id="clip0_811_1881">
<rect width="45" height="8" fill="white" transform="translate(8 26)"/>
</clipPath>
</defs>
</svg>
