<svg width="121" height="41" viewBox="0 0 121 41" fill="none" xmlns="http://www.w3.org/2000/svg">
<path d="M38.4613 32.1414C31.2215 32.1414 26.8126 26.6614 26.8126 19.8943C26.8126 13.2357 31.3736 7.61714 38.4613 7.61714C46.8343 7.61714 50.11 14.69 50.11 19.8943C50.11 26.2143 46.1445 32.1414 38.4613 32.1414ZM38.4923 27.5486C42.7323 27.5486 44.5538 23.7986 44.5538 19.8786C44.5538 15.1486 42.0439 12.1943 38.4923 12.1943C34.8801 12.1943 32.3702 15.18 32.3702 19.8786C32.3688 23.7986 34.3593 27.55 38.4923 27.55V27.5486ZM87.504 12.7771H92.6618V8.21429H87.504V2.65857H82.0703V8.21429H78.2442V12.7771H82.0703V25.7271C82.0415 26.4709 82.1592 27.213 82.4164 27.9101C82.6736 28.6071 83.0652 29.2452 83.5683 29.7868C84.0713 30.3285 84.6758 30.7629 85.3462 31.0647C86.0167 31.3664 86.7398 31.5295 87.4731 31.5443H92.6618V26.7386H89.1848C87.9292 26.7386 87.4956 26.1571 87.4956 25.0243V12.7771H87.504ZM114.536 8.21429L108.674 24.3043H107.281L101.311 8.21429H95.739L103.5 29.1714H106.867L102.582 40.5H108.2L120.154 8.21429H114.536ZM68.8605 21.3186V8.21429H74.3505V31.5443H69.0294V28.82H68.5705C67.9339 29.902 67.0153 30.7846 65.9159 31.3706C64.8166 31.9567 63.5792 32.2234 62.3401 32.1414C61.1958 32.1125 60.0684 31.8552 59.0222 31.3841C57.976 30.9129 57.0315 30.2373 56.2426 29.3957C55.4537 28.5541 54.8359 27.5631 54.4245 26.4792C54.013 25.3953 53.816 24.2398 53.8446 23.0786V8.23H59.3346V21.5157C59.3346 25.6186 61.2477 27.1957 63.8505 27.1957C67.3655 27.1671 68.8605 24.7329 68.8605 21.3186ZM23.0471 0.5L18.0962 14.3843H11.3393L6.41232 0.5H0.5L7.51032 19.4814H11.9798V31.5443H17.4698V19.4814H21.9392L28.9552 0.5H23.0471Z" fill="black"/>
</svg>
