<svg width="120" height="123" viewBox="0 0 120 123" fill="none" xmlns="http://www.w3.org/2000/svg">
<path d="M14.3186 117.989C14.3889 117.884 14.4592 117.805 14.5295 117.752C14.6174 117.682 14.6965 117.647 14.7669 117.647C14.9075 117.647 15.0657 117.726 15.2415 117.884C15.9096 118.411 16.6392 118.833 17.4303 119.15C18.239 119.449 19.0565 119.598 19.8828 119.598C20.9201 119.598 21.72 119.414 22.2826 119.044C22.8452 118.658 23.1265 118.139 23.1265 117.488C23.1265 117.066 23.0122 116.724 22.7836 116.46C22.5551 116.196 22.1771 115.959 21.6497 115.748C21.1398 115.537 20.4015 115.308 19.4345 115.062C18.1511 114.746 17.0875 114.368 16.2436 113.928C15.4173 113.489 14.7756 112.917 14.3186 112.214C13.879 111.511 13.6593 110.632 13.6593 109.577C13.6593 108.399 13.9406 107.388 14.5031 106.544C15.0833 105.683 15.8744 105.033 16.8765 104.593C17.8962 104.136 19.0477 103.907 20.3311 103.907C22.6694 103.907 24.7527 104.637 26.5811 106.096C26.7745 106.237 26.8711 106.395 26.8711 106.571C26.8711 106.711 26.8096 106.87 26.6865 107.046L25.579 108.786C25.4383 109.015 25.2889 109.129 25.1307 109.129C25.0076 109.129 24.8494 109.058 24.656 108.918C23.9352 108.408 23.2232 108.012 22.5199 107.731C21.8167 107.45 21.0783 107.309 20.3048 107.309C19.4433 107.309 18.7577 107.494 18.2478 107.863C17.7556 108.232 17.5094 108.724 17.5094 109.34C17.5094 109.779 17.6325 110.14 17.8786 110.421C18.1248 110.702 18.4852 110.94 18.9598 111.133C19.4521 111.326 20.1465 111.537 21.0432 111.766C22.3969 112.1 23.5044 112.504 24.3659 112.979C25.2274 113.436 25.869 114.016 26.291 114.719C26.7305 115.405 26.9503 116.249 26.9503 117.251C26.9503 118.429 26.6514 119.449 26.0536 120.31C25.4559 121.172 24.6208 121.84 23.5484 122.314C22.476 122.771 21.2453 123 19.8565 123C18.5907 123 17.404 122.798 16.2964 122.393C15.1888 121.989 14.2131 121.435 13.3692 120.732C13.1231 120.539 13 120.363 13 120.205C13 120.099 13.0703 119.932 13.211 119.704L14.3186 117.989Z" fill="#222222"/>
<path d="M39.3491 119.572C41.1599 119.572 42.7773 119 44.2013 117.858C44.3947 117.699 44.5617 117.62 44.7024 117.62C44.843 117.62 44.9837 117.717 45.1243 117.91L46.2846 119.572C46.3901 119.73 46.4429 119.862 46.4429 119.967C46.4429 120.055 46.4165 120.143 46.3638 120.231C46.311 120.319 46.2231 120.416 46.1 120.521C45.1507 121.312 44.0871 121.928 42.9092 122.367C41.7312 122.789 40.5006 123 39.2172 123C37.424 123 35.789 122.596 34.3122 121.787C32.853 120.961 31.7015 119.827 30.8576 118.385C30.0137 116.943 29.5918 115.326 29.5918 113.533C29.5918 111.704 30.0137 110.061 30.8576 108.601C31.7191 107.142 32.8882 105.999 34.3649 105.173C35.8593 104.329 37.5383 103.907 39.4018 103.907C40.6852 103.907 41.8983 104.127 43.041 104.567C44.1838 105.006 45.221 105.604 46.1528 106.36C46.2407 106.448 46.311 106.536 46.3638 106.624C46.4165 106.694 46.4429 106.764 46.4429 106.835C46.4429 106.958 46.3813 107.107 46.2583 107.283L45.0979 108.918C44.9397 109.129 44.7815 109.234 44.6233 109.234C44.5002 109.234 44.342 109.164 44.1486 109.023C43.4454 108.496 42.6894 108.083 41.8807 107.784C41.072 107.485 40.2281 107.336 39.3491 107.336C38.2415 107.336 37.2306 107.599 36.3164 108.127C35.4198 108.637 34.7078 109.357 34.1804 110.289C33.6705 111.221 33.4156 112.285 33.4156 113.48C33.4156 114.64 33.6705 115.686 34.1804 116.618C34.7078 117.532 35.4198 118.253 36.3164 118.781C37.213 119.308 38.2239 119.572 39.3491 119.572Z" fill="#222222"/>
<path d="M52.1869 121.866C52.0287 122.2 51.8705 122.42 51.7122 122.525C51.554 122.631 51.3167 122.684 51.0002 122.684H48.6532C48.2664 122.684 48.073 122.56 48.073 122.314C48.073 122.226 48.117 122.077 48.2049 121.866L56.4063 105.12C56.6524 104.593 56.8546 104.241 57.0128 104.066C57.171 103.89 57.3468 103.802 57.5402 103.802C57.7336 103.802 57.9006 103.89 58.0413 104.066C58.1819 104.241 58.3841 104.593 58.6478 105.12L66.9019 121.866C66.9898 122.077 67.0338 122.226 67.0338 122.314C67.0338 122.56 66.8404 122.684 66.4536 122.684H63.9484C63.6495 122.684 63.421 122.631 63.2627 122.525C63.1045 122.42 62.9463 122.2 62.7881 121.866L57.4611 110.632L52.1869 121.866Z" fill="#222222"/>
<path d="M81.4883 104.857C81.4883 104.628 81.5322 104.47 81.6201 104.382C81.7256 104.277 81.8926 104.224 82.1212 104.224H84.521C84.7495 104.224 84.9165 104.277 85.022 104.382C85.1275 104.47 85.1802 104.628 85.1802 104.857V122.051C85.1802 122.367 85.1275 122.604 85.022 122.763C84.9341 122.921 84.7847 123 84.5737 123C84.4155 123 84.2485 122.938 84.0727 122.815C83.8968 122.692 83.6507 122.473 83.3343 122.156L73.2869 111.529V122.051C73.2869 122.279 73.2342 122.446 73.1287 122.552C73.0232 122.64 72.8562 122.684 72.6276 122.684H70.2279C69.9993 122.684 69.8323 122.64 69.7268 122.552C69.6389 122.446 69.595 122.279 69.595 122.051V104.857C69.595 104.224 69.7884 103.907 70.1751 103.907C70.3334 103.907 70.5004 103.969 70.6762 104.092C70.8696 104.215 71.1245 104.435 71.4409 104.751L81.4883 115.379V104.857Z" fill="#222222"/>
<path d="M91.8563 121.866C91.6981 122.2 91.5399 122.42 91.3817 122.525C91.2234 122.631 90.9861 122.684 90.6696 122.684H88.3226C87.9358 122.684 87.7425 122.56 87.7425 122.314C87.7425 122.226 87.7864 122.077 87.8743 121.866L96.0757 105.12C96.3218 104.593 96.524 104.241 96.6822 104.066C96.8404 103.89 97.0163 103.802 97.2096 103.802C97.403 103.802 97.57 103.89 97.7107 104.066C97.8513 104.241 98.0535 104.593 98.3172 105.12L106.571 121.866C106.659 122.077 106.703 122.226 106.703 122.314C106.703 122.56 106.51 122.684 106.123 122.684H103.618C103.319 122.684 103.09 122.631 102.932 122.525C102.774 122.42 102.616 122.2 102.457 121.866L97.1305 110.632L91.8563 121.866Z" fill="#222222"/>
<path d="M29.2275 46.6135H90.0837" stroke="#222222" stroke-width="5" stroke-linecap="round" stroke-linejoin="round"/>
<path d="M14.96 39.5137V3H51.4736" stroke="#222222" stroke-width="5" stroke-linecap="round" stroke-linejoin="round"/>
<path d="M68.7148 3H105.229V39.5137" stroke="#222222" stroke-width="5" stroke-linecap="round" stroke-linejoin="round"/>
<path d="M105.229 53.7135V90.2272H68.7148" stroke="#222222" stroke-width="5" stroke-linecap="round" stroke-linejoin="round"/>
<path d="M14.96 53.7135V90.2272H51.4736" stroke="#222222" stroke-width="5" stroke-linecap="round" stroke-linejoin="round"/>
<path d="M41.3994 63.8562H77.9131" stroke="#222222" stroke-width="5" stroke-linecap="round" stroke-linejoin="round"/>
<path d="M41.3994 29.3711H77.9131" stroke="#222222" stroke-width="5" stroke-linecap="round" stroke-linejoin="round"/>
</svg>
