<svg class="business-card" width="94" height="100" viewBox="0 0 94 100" fill="none" xmlns="http://www.w3.org/2000/svg">
<g clip-path="url(#clip0_719_2408)">
<path d="M71.7462 44.3097L71.0151 33.3635L3.92688 37.8581L6.97634 83.3807L74.0645 78.886L73.2301 66.4301" stroke="#256265" stroke-width="3.22581" stroke-linecap="round" stroke-linejoin="round"/>
<path d="M77.9183 44.5764L54.9505 49.2301C54.006 49.4332 53.113 49.8275 52.3265 50.3888C51.5401 50.95 50.8768 51.6662 50.3776 52.4934C49.8784 53.3206 49.5538 54.2413 49.4238 55.1986C49.2937 56.156 49.361 57.1298 49.6215 58.0602V58.0602C50.1001 59.7744 51.2068 61.2455 52.7212 62.1804C54.2356 63.1153 56.0466 63.4456 57.7936 63.1054L63.9871 62.2796C69.4581 67.4409 82.9118 66.2581 88.0731 60.7699L96.1032 62.7484" stroke="#256265" stroke-width="3.22581" stroke-linecap="round" stroke-linejoin="round"/>
<path d="M48.2108 25.7419L53.2774 20.8215C55.1417 19.0095 57.4484 17.718 59.9675 17.0758C62.4867 16.4335 65.1302 16.463 67.6344 17.1613L95.1613 24.8172" stroke="#256265" stroke-width="3.22581" stroke-linecap="round" stroke-linejoin="round"/>
<path d="M28.2279 65.4666C32.9028 65.4666 36.6925 61.6769 36.6925 57.0021C36.6925 52.3273 32.9028 48.5376 28.2279 48.5376C23.5531 48.5376 19.7634 52.3273 19.7634 57.0021C19.7634 61.6769 23.5531 65.4666 28.2279 65.4666Z" stroke="#256265" stroke-width="3.22581" stroke-linecap="round" stroke-linejoin="round"/>
<path d="M45.0237 80.8301C44.0943 76.8858 41.6766 73.4533 38.2757 71.2499C34.8748 69.0465 30.7539 68.2427 26.7742 69.0064C23.5346 69.7138 20.6077 71.4424 18.4243 73.9379C16.2408 76.4335 14.9161 79.564 14.6452 82.8688" stroke="#256265" stroke-width="3.22581" stroke-linecap="round" stroke-linejoin="round"/>
</g>
<defs>
<clipPath id="clip0_719_2408">
<rect width="94" height="100" fill="white"/>
</clipPath>
</defs>
</svg>
