<svg width="48" height="48" viewBox="0 0 48 48" fill="none" xmlns="http://www.w3.org/2000/svg">
<path d="M10.5 16.5C10.5 20.0804 11.9223 23.5142 14.4541 26.0459C16.9858 28.5777 20.4196 30 24 30C27.5804 30 31.0142 28.5777 33.5459 26.0459C36.0777 23.5142 37.5 20.0804 37.5 16.5C37.5 12.9196 36.0777 9.4858 33.5459 6.95406C31.0142 4.42232 27.5804 3 24 3C20.4196 3 16.9858 4.42232 14.4541 6.95406C11.9223 9.4858 10.5 12.9196 10.5 16.5V16.5Z" stroke="black" stroke-width="3" stroke-linecap="round" stroke-linejoin="round"/>
<path d="M1.5 31.5C1.5 35.0804 2.92232 38.5142 5.45406 41.0459C7.9858 43.5777 11.4196 45 15 45C18.5804 45 22.0142 43.5777 24.5459 41.0459C27.0777 38.5142 28.5 35.0804 28.5 31.5C28.5 27.9196 27.0777 24.4858 24.5459 21.9541C22.0142 19.4223 18.5804 18 15 18C11.4196 18 7.9858 19.4223 5.45406 21.9541C2.92232 24.4858 1.5 27.9196 1.5 31.5V31.5Z" stroke="black" stroke-width="3" stroke-linecap="round" stroke-linejoin="round"/>
<path d="M19.5 31.5C19.5 33.2728 19.8492 35.0283 20.5276 36.6662C21.2061 38.3041 22.2005 39.7923 23.4541 41.0459C24.7076 42.2995 26.1959 43.2939 27.8338 43.9724C29.4717 44.6508 31.2272 45 33 45C34.7728 45 36.5283 44.6508 38.1662 43.9724C39.8041 43.2939 41.2923 42.2995 42.5459 41.0459C43.7995 39.7923 44.7939 38.3041 45.4724 36.6662C46.1508 35.0283 46.5 33.2728 46.5 31.5C46.5 29.7272 46.1508 27.9717 45.4724 26.3338C44.7939 24.6959 43.7995 23.2076 42.5459 21.9541C41.2923 20.7005 39.8041 19.7061 38.1662 19.0276C36.5283 18.3492 34.7728 18 33 18C31.2272 18 29.4717 18.3492 27.8338 19.0276C26.1959 19.7061 24.7076 20.7005 23.4541 21.9541C22.2005 23.2076 21.2061 24.6959 20.5276 26.3338C19.8492 27.9717 19.5 29.7272 19.5 31.5V31.5Z" stroke="black" stroke-width="3" stroke-linecap="round" stroke-linejoin="round"/>
</svg>
