<svg width="24" height="24" viewBox="0 0 24 24" fill="none" xmlns="http://www.w3.org/2000/svg">
<path d="M7.19145 1.00894C9.05213 0.193731 11.0896 -0.13594 13.1127 0.0508535C15.1358 0.237647 17.0783 0.934783 18.7579 2.07687C17.3691 3.95845 15.6206 5.54617 13.6135 6.74813C11.9267 4.38169 9.73274 2.421 7.19145 1.00894V1.00894ZM11.9631 7.61926C10.2223 5.24549 7.91507 3.34419 5.2513 2.08831C2.92445 3.67421 1.22691 6.02406 0.453346 8.72995C1.8173 9.0629 3.21635 9.23097 4.62042 9.23053C7.15611 9.23296 9.66185 8.68311 11.9631 7.61926V7.61926ZM24 11.2721C23.8139 8.20397 22.4538 5.32489 20.2015 3.23105C18.6856 5.26769 16.7872 6.9898 14.6122 8.30114C15.2455 9.39705 15.7693 10.5525 16.1762 11.7508C18.7245 11.0616 21.3866 10.8987 24 11.2721L24 11.2721ZM16.6858 13.5257C17.0279 14.9805 17.2004 16.47 17.1996 17.9645C17.1985 19.7104 16.9621 21.4483 16.497 23.1312C18.5383 22.3065 20.3141 20.9383 21.6312 19.1754C22.9484 17.4126 23.7564 15.3226 23.9673 13.1329C21.5393 12.7545 19.0589 12.8883 16.6858 13.5257H16.6858ZM14.4174 12.3194C14.0452 11.2284 13.5658 10.1769 12.9863 9.18028C10.3755 10.4319 7.51619 11.0801 4.62042 11.0767C3.09409 11.0772 1.57304 10.8976 0.0888791 10.5416C-0.152785 12.5142 0.10023 14.5158 0.825157 16.3665C1.55008 18.2171 2.72418 19.8587 4.2418 21.1434C6.47742 17.0884 10.0845 13.9604 14.4174 12.3194ZM5.75038 22.2369C8.32665 23.8118 11.4025 24.3586 14.3644 23.7681C15.017 21.9026 15.3508 19.9407 15.3517 17.9645C15.3518 16.6655 15.2072 15.3705 14.9206 14.1034C10.9895 15.6331 7.73644 18.5184 5.75038 22.2369V22.2369Z" fill="black"/>
</svg>
