<svg width="24" height="24" viewBox="0 0 24 24" fill="none" xmlns="http://www.w3.org/2000/svg">
<mask id="path-1-inside-1_41_343" fill="white">
<path d="M24 12C24 18.6274 18.6274 24 12 24C5.37258 24 0 18.6274 0 12C0 5.37258 5.37258 0 12 0C18.6274 0 24 5.37258 24 12Z"/>
</mask>
<path d="M7.39345 1.94113C11.3705 7.40955 15.278 13.7818 16.2551 22.0876L17.7449 21.9124C16.722 13.2182 12.6295 6.59045 8.60655 1.05887L7.39345 1.94113ZM0.976574 11.4996C5.05523 11.6271 9.27021 11.0549 12.8016 9.86711C16.3038 8.6891 19.2702 6.858 20.6556 4.36423L19.3444 3.63577C18.2298 5.642 15.6962 7.3109 12.3234 8.44539C8.97979 9.57005 4.94477 10.1229 1.02343 10.0004L0.976574 11.4996ZM5.13275 20.6527C6.84819 17.957 8.88213 15.6361 11.6445 14.2725C14.3902 12.9172 17.9519 12.4611 22.8181 13.6776L23.1819 12.2224C18.0481 10.9389 14.1098 11.3828 10.9805 12.9275C7.86787 14.4639 5.65181 17.043 3.86725 19.8473L5.13275 20.6527ZM22.5 12C22.5 17.799 17.799 22.5 12 22.5V25.5C19.4558 25.5 25.5 19.4558 25.5 12H22.5ZM12 22.5C6.20101 22.5 1.5 17.799 1.5 12H-1.5C-1.5 19.4558 4.54416 25.5 12 25.5V22.5ZM1.5 12C1.5 6.20101 6.20101 1.5 12 1.5V-1.5C4.54416 -1.5 -1.5 4.54416 -1.5 12H1.5ZM12 1.5C17.799 1.5 22.5 6.20101 22.5 12H25.5C25.5 4.54416 19.4558 -1.5 12 -1.5V1.5Z" fill="black" mask="url(#path-1-inside-1_41_343)"/>
</svg>
