<svg width="24" height="24" viewBox="0 0 24 24" fill="none" xmlns="http://www.w3.org/2000/svg">
<path d="M15.75 14.77C17.2798 14.77 18.52 13.5298 18.52 12C18.52 10.4702 17.2798 9.23001 15.75 9.23001C14.2202 9.23001 12.98 10.4702 12.98 12C12.98 13.5298 14.2202 14.77 15.75 14.77Z" stroke="white" stroke-width="1.5" stroke-linecap="round" stroke-linejoin="round"/>
<path d="M12 8.25H8.25C7.25544 8.25 6.30161 7.85491 5.59835 7.15165C4.89509 6.44839 4.5 5.49456 4.5 4.5C4.5 3.50544 4.89509 2.55161 5.59835 1.84835C6.30161 1.14509 7.25544 0.75 8.25 0.75H12V8.25Z" stroke="white" stroke-width="1.5" stroke-linecap="round" stroke-linejoin="round"/>
<path d="M12 8.25H15.75C16.7446 8.25 17.6984 7.85491 18.4017 7.15165C19.1049 6.44839 19.5 5.49456 19.5 4.5C19.5 3.50544 19.1049 2.55161 18.4017 1.84835C17.6984 1.14509 16.7446 0.75 15.75 0.75H12V8.25Z" stroke="white" stroke-width="1.5" stroke-linecap="round" stroke-linejoin="round"/>
<path d="M12 15.75H8.25C7.25544 15.75 6.30161 15.3549 5.59835 14.6517C4.89509 13.9484 4.5 12.9946 4.5 12C4.5 11.0054 4.89509 10.0516 5.59835 9.34835C6.30161 8.64509 7.25544 8.25 8.25 8.25H12V15.75Z" stroke="white" stroke-width="1.5" stroke-linecap="round" stroke-linejoin="round"/>
<path d="M12 19.5C12 20.2417 11.7801 20.9667 11.368 21.5834C10.956 22.2001 10.3703 22.6807 9.68506 22.9645C8.99984 23.2484 8.24584 23.3226 7.51841 23.1779C6.79098 23.0332 6.1228 22.6761 5.59835 22.1517C5.0739 21.6272 4.71675 20.959 4.57206 20.2316C4.42736 19.5042 4.50162 18.7502 4.78545 18.0649C5.06928 17.3797 5.54993 16.794 6.16661 16.382C6.7833 15.9699 7.50832 15.75 8.25 15.75H12V19.5Z" stroke="white" stroke-width="1.5" stroke-linecap="round" stroke-linejoin="round"/>
</svg>
