<svg width="24" height="24" viewBox="0 0 24 24" fill="none" xmlns="http://www.w3.org/2000/svg">
<g clip-path="url(#clip0_41_344)">
<path d="M14.41 22.3499C14.41 22.4276 14.4281 22.5041 14.4628 22.5736C14.4975 22.643 14.5479 22.7034 14.61 22.7499C14.6721 22.7965 14.7442 22.828 14.8205 22.8419C14.8969 22.8558 14.9755 22.8517 15.05 22.8299C17.6544 22.0782 19.8998 20.4113 21.3731 18.1359C22.8465 15.8606 23.4487 13.1297 23.0691 10.4457C22.6895 7.76169 21.3535 5.305 19.3069 3.5275C17.2603 1.75 14.6407 0.77124 11.93 0.77124C9.21926 0.77124 6.59967 1.75 4.55307 3.5275C2.50647 5.305 1.17049 7.76169 0.790859 10.4457C0.41123 13.1297 1.01348 15.8606 2.48684 18.1359C3.9602 20.4113 6.20559 22.0782 8.80999 22.8299C8.88451 22.8517 8.96306 22.8558 9.03943 22.8419C9.1158 22.828 9.18789 22.7965 9.24999 22.7499C9.31209 22.7034 9.36249 22.643 9.3972 22.5736C9.43192 22.5041 9.44999 22.4276 9.44999 22.3499V19.9999C8.76404 20.2072 8.02483 20.1445 7.38354 19.8248C6.74225 19.5051 6.24732 18.9525 5.99999 18.2799C5.72044 17.4289 5.256 16.6503 4.63999 15.9999C7.48999 16.6899 7.53999 18.5399 9.47999 17.6699C9.53862 17.021 9.75489 16.3962 10.11 15.8499C7.90999 15.5999 5.58999 15.2499 5.58999 11.4499C5.5709 10.468 5.92876 9.51611 6.58999 8.78994C6.2888 7.93569 6.32456 6.99875 6.68999 6.16995C6.68999 6.16995 7.51999 5.89995 9.41999 7.16995C11.056 6.71806 12.784 6.71806 14.42 7.16995C16.31 5.88995 17.14 6.16995 17.14 6.16995C17.5054 6.99875 17.5412 7.93569 17.24 8.78994C17.9021 9.51557 18.2601 10.4678 18.24 11.4499C18.24 15.2599 15.92 15.5999 13.71 15.8399C14.1833 16.5223 14.4219 17.3401 14.39 18.1699L14.41 22.3499Z" stroke="black" stroke-width="1.5" stroke-linecap="round" stroke-linejoin="round"/>
</g>
<defs>
<clipPath id="clip0_41_344">
<rect width="24" height="24" fill="white"/>
</clipPath>
</defs>
</svg>
