<svg width="24" height="24" viewBox="0 0 24 24" fill="#000000" xmlns="http://www.w3.org/2000/svg">
<path d="M6.5 8.5H2.5C2.22386 8.5 2 8.72386 2 9V22C2 22.2761 2.22386 22.5 2.5 22.5H6.5C6.77614 22.5 7 22.2761 7 22V9C7 8.72386 6.77614 8.5 6.5 8.5Z" fill="#000000"/>
<path d="M4.48002 6.50001C4.97531 6.50397 5.46061 6.36073 5.87435 6.08844C6.2881 5.81616 6.61164 5.42711 6.80393 4.97066C6.99622 4.51421 7.04859 4.01092 6.9544 3.52466C6.8602 3.0384 6.62369 2.59107 6.27487 2.23944C5.92605 1.8878 5.48064 1.64771 4.99515 1.54961C4.50966 1.45152 4.00597 1.49984 3.54799 1.68846C3.09001 1.87708 2.69837 2.19749 2.42278 2.60903C2.14718 3.02058 2.00004 3.50471 2.00002 4.00001C1.9987 4.327 2.06181 4.65105 2.18573 4.95366C2.30965 5.25626 2.49196 5.5315 2.72225 5.76364C2.95254 5.99579 3.2263 6.1803 3.5279 6.30665C3.8295 6.433 4.15303 6.4987 4.48002 6.50001V6.50001Z" fill="#000000"/>
<path d="M18.5 22.5H21.5C21.6326 22.5 21.7598 22.4473 21.8536 22.3536C21.9473 22.2598 22 22.1326 22 22V13.6C22 9.83001 19.87 8.00001 16.89 8.00001C16.2999 7.97902 15.7119 8.08209 15.1642 8.30258C14.6164 8.52307 14.121 8.85605 13.71 9.28001C13.6541 9.34066 13.5805 9.38204 13.4996 9.39821C13.4188 9.41438 13.3349 9.40451 13.26 9.37001C13.1844 9.34177 13.1191 9.29132 13.0727 9.22528C13.0263 9.15925 13.001 9.08072 13 9.00001C13 8.86741 12.9473 8.74023 12.8536 8.64646C12.7598 8.55269 12.6326 8.50001 12.5 8.50001H9.5C9.36739 8.50001 9.24021 8.55269 9.14645 8.64646C9.05268 8.74023 9 8.86741 9 9.00001V22C9 22.1326 9.05268 22.2598 9.14645 22.3536C9.24021 22.4473 9.36739 22.5 9.5 22.5H12.5C12.6326 22.5 12.7598 22.4473 12.8536 22.3536C12.9473 22.2598 13 22.1326 13 22V14.5C13 13.837 13.2634 13.2011 13.7322 12.7322C14.2011 12.2634 14.837 12 15.5 12C16.163 12 16.7989 12.2634 17.2678 12.7322C17.7366 13.2011 18 13.837 18 14.5V22C18 22.1326 18.0527 22.2598 18.1464 22.3536C18.2402 22.4473 18.3674 22.5 18.5 22.5Z" fill="#000000"/>
</svg>
