<svg width="24" height="24" viewBox="0 0 24 24" fill="none" xmlns="http://www.w3.org/2000/svg">
<g clip-path="url(#clip0_41_345)">
<path d="M5.67001 22.63H0.810011V8.7H5.67001V22.63ZM15.76 13.24C15.1924 13.24 14.6481 13.4655 14.2468 13.8668C13.8455 14.2681 13.62 14.8124 13.62 15.38V22.63H8.51001V8.7H13.62V10.29C14.8177 9.27606 16.3309 8.71039 17.9 8.69C21.07 8.69 23.27 11.04 23.27 15.5V22.63H17.9V15.38C17.9013 15.0981 17.8469 14.8188 17.74 14.558C17.633 14.2972 17.4756 14.0601 17.2768 13.8603C17.0779 13.6605 16.8416 13.502 16.5813 13.3939C16.321 13.2857 16.0419 13.23 15.76 13.23V13.24ZM5.76001 3.88C5.76001 4.37446 5.61339 4.85781 5.33869 5.26893C5.06398 5.68005 4.67353 6.00048 4.21672 6.1897C3.7599 6.37892 3.25724 6.42843 2.77229 6.33197C2.28733 6.2355 1.84188 5.9974 1.49224 5.64777C1.14261 5.29814 0.904511 4.85268 0.808048 4.36773C0.711585 3.88278 0.761093 3.38011 0.950312 2.9233C1.13953 2.46648 1.45996 2.07603 1.87109 1.80133C2.28221 1.52663 2.76556 1.38 3.26001 1.38C3.91958 1.38528 4.55034 1.651 5.01486 2.11927C5.47939 2.58754 5.74003 3.22041 5.74001 3.88H5.76001Z" stroke="black" stroke-width="1.5" stroke-linecap="round" stroke-linejoin="round"/>
</g>
<defs>
<clipPath id="clip0_41_345">
<rect width="24" height="24" fill="white"/>
</clipPath>
</defs>
</svg>
