<svg width="20" height="20" viewBox="0 0 20 20" fill="none" xmlns="http://www.w3.org/2000/svg">
<path d="M9.375 14.375C9.375 15.7011 9.90178 16.9729 10.8395 17.9105C11.7771 18.8482 13.0489 19.375 14.375 19.375C15.7011 19.375 16.9729 18.8482 17.9105 17.9105C18.8482 16.9729 19.375 15.7011 19.375 14.375C19.375 13.0489 18.8482 11.7771 17.9105 10.8395C16.9729 9.90178 15.7011 9.375 14.375 9.375C13.0489 9.375 11.7771 9.90178 10.8395 10.8395C9.90178 11.7771 9.375 13.0489 9.375 14.375Z" stroke="black" stroke-width="1.25" stroke-linecap="round" stroke-linejoin="round"/>
<path d="M14.375 11.875V16.875" stroke="black" stroke-width="1.25" stroke-linecap="round" stroke-linejoin="round"/>
<path d="M14.375 16.875L12.5 15" stroke="black" stroke-width="1.25" stroke-linecap="round" stroke-linejoin="round"/>
<path d="M14.375 16.875L16.25 15" stroke="black" stroke-width="1.25" stroke-linecap="round" stroke-linejoin="round"/>
<path d="M3.125 5.625H11.875" stroke="black" stroke-width="1.25" stroke-linecap="round" stroke-linejoin="round"/>
<path d="M3.125 9.375H8.125" stroke="black" stroke-width="1.25" stroke-linecap="round" stroke-linejoin="round"/>
<path d="M3.125 13.125H6.25" stroke="black" stroke-width="1.25" stroke-linecap="round" stroke-linejoin="round"/>
<path d="M6.25 16.875H1.875C1.54348 16.875 1.22554 16.7433 0.991117 16.5089C0.756696 16.2745 0.625 15.9565 0.625 15.625V1.875C0.625 1.54348 0.756696 1.22554 0.991117 0.991117C1.22554 0.756696 1.54348 0.625 1.875 0.625H10.7325C11.0638 0.625071 11.3815 0.756651 11.6158 0.990833L14.0092 3.38417C14.2433 3.6185 14.3749 3.93621 14.375 4.2675V6.25" stroke="black" stroke-width="1.25" stroke-linecap="round" stroke-linejoin="round"/>
</svg>
