<svg width="48" height="48" viewBox="0 0 48 48" fill="none" xmlns="http://www.w3.org/2000/svg">
<g clip-path="url(#clip0_1051_2250)">
<path d="M10.66 35.6961C7.18732 32.5347 5.00179 28.2041 4.52132 23.5326C4.04086 18.8611 5.29919 14.1764 8.05569 10.3743C10.8122 6.57227 14.8734 3.91966 19.4628 2.92375C24.0521 1.92784 28.8475 2.65852 32.932 4.97606" stroke="black" stroke-width="3" stroke-linecap="round" stroke-linejoin="round"/>
<path d="M3.964 35.5601C1.538 39.8101 0.726 43.1081 2.096 44.4801C4.176 46.5581 10.684 43.6201 18.22 37.6441" stroke="black" stroke-width="3" stroke-linecap="round" stroke-linejoin="round"/>
<path d="M26.846 36.1341L19.686 28.9741L35.6 13.0601C36.8981 11.7626 38.5249 10.8431 40.306 10.4001L44.4 9.37209C44.6826 9.30168 44.9787 9.30559 45.2593 9.38345C45.54 9.46132 45.7957 9.61047 46.0017 9.81643C46.2076 10.0224 46.3568 10.2781 46.4346 10.5588C46.5125 10.8394 46.5164 11.1355 46.446 11.4181L45.422 15.5141C44.9771 17.2947 44.0562 18.9207 42.758 20.2181L26.846 36.1341Z" stroke="black" stroke-width="3" stroke-linecap="round" stroke-linejoin="round"/>
<path d="M19.686 28.9741L13.822 27.0201C13.685 26.9748 13.5619 26.8952 13.4645 26.7888C13.3671 26.6824 13.2985 26.5528 13.2654 26.4124C13.2323 26.272 13.2358 26.1254 13.2755 25.9867C13.3151 25.848 13.3897 25.7218 13.492 25.6201L15.536 23.5761C16.4246 22.6877 17.543 22.0642 18.7659 21.7756C19.9888 21.487 21.268 21.5447 22.46 21.9421L25.66 23.0061L19.686 28.9741Z" stroke="black" stroke-width="3" stroke-linecap="round" stroke-linejoin="round"/>
<path d="M26.846 36.1341L28.8 42.0001C28.8453 42.1371 28.9249 42.2602 29.0313 42.3576C29.1377 42.455 29.2673 42.5236 29.4077 42.5567C29.5481 42.5898 29.6947 42.5863 29.8334 42.5467C29.9721 42.507 30.0983 42.4324 30.2 42.3301L32.244 40.2861C33.1324 39.3975 33.7559 38.2791 34.0445 37.0562C34.3331 35.8333 34.2754 34.5541 33.878 33.3621L32.814 30.1621L26.846 36.1341Z" stroke="black" stroke-width="3" stroke-linecap="round" stroke-linejoin="round"/>
</g>
<defs>
<clipPath id="clip0_1051_2250">
<rect width="48" height="48" fill="white"/>
</clipPath>
</defs>
</svg>
