<svg width="159" height="36" viewBox="0 0 159 36" fill="none" xmlns="http://www.w3.org/2000/svg">
<path d="M48.2707 12V22.9165H46V12H48.2707Z" fill="black"/>
<path d="M55.34 19.4304V14.7291H57.6107V22.9165H55.4306V21.4293H55.3453C55.1606 21.909 54.8532 22.2946 54.4232 22.586C53.9968 22.8774 53.4762 23.0231 52.8614 23.0231C52.3142 23.0231 51.8327 22.8987 51.4169 22.6499C51.0011 22.4012 50.676 22.0476 50.4415 21.5892C50.2105 21.1308 50.0932 20.5818 50.0897 19.9421V14.7291H52.3604V19.537C52.3639 20.0203 52.4936 20.4023 52.7495 20.6831C53.0053 20.9638 53.3483 21.1042 53.7782 21.1042C54.0519 21.1042 54.3077 21.042 54.5458 20.9176C54.7839 20.7897 54.9758 20.6013 55.1215 20.3526C55.2707 20.1038 55.3436 19.7965 55.34 19.4304Z" fill="black"/>
<path d="M63.1262 23.0764C62.2876 23.0764 61.5662 22.8987 60.9621 22.5433C60.3616 22.1844 59.8996 21.6869 59.5763 21.0509C59.2564 20.4148 59.0965 19.6827 59.0965 18.8548C59.0965 18.0161 59.2582 17.2806 59.5816 16.648C59.9085 16.0119 60.3723 15.5162 60.9728 15.1609C61.5733 14.802 62.2876 14.6225 63.1156 14.6225C63.8298 14.6225 64.4553 14.7522 64.9918 15.0116C65.5284 15.271 65.9531 15.6353 66.2658 16.1043C66.5785 16.5734 66.7508 17.1242 66.7828 17.7567H64.64C64.5796 17.3481 64.4197 17.0194 64.1603 16.7706C63.9045 16.5183 63.5687 16.3922 63.1529 16.3922C62.8011 16.3922 62.4937 16.4881 62.2307 16.68C61.9713 16.8683 61.7688 17.1437 61.6231 17.5062C61.4774 17.8687 61.4046 18.3075 61.4046 18.8228C61.4046 19.3452 61.4756 19.7893 61.6178 20.1554C61.7635 20.5214 61.9678 20.8003 62.2307 20.9922C62.4937 21.1841 62.8011 21.2801 63.1529 21.2801C63.4123 21.2801 63.6451 21.2268 63.8512 21.1201C64.0608 21.0135 64.2332 20.859 64.3682 20.6564C64.5068 20.4503 64.5974 20.2033 64.64 19.9155H66.7828C66.7473 20.5409 66.5767 21.0917 66.2711 21.5679C65.9691 22.0405 65.5515 22.4101 65.0185 22.6766C64.4855 22.9431 63.8547 23.0764 63.1262 23.0764Z" fill="black"/>
<path d="M70.5713 23.071C70.049 23.071 69.5834 22.9804 69.1748 22.7992C68.7661 22.6144 68.4428 22.3426 68.2047 21.9837C67.9701 21.6212 67.8529 21.1699 67.8529 20.6298C67.8529 20.1749 67.9364 19.7929 68.1034 19.4837C68.2704 19.1746 68.4978 18.9258 68.7857 18.7375C69.0735 18.5492 69.4004 18.407 69.7665 18.3111C70.136 18.2151 70.5234 18.1476 70.9285 18.1085C71.4046 18.0588 71.7884 18.0126 72.0798 17.9699C72.3712 17.9237 72.5826 17.8562 72.7141 17.7674C72.8456 17.6785 72.9113 17.5471 72.9113 17.3729V17.341C72.9113 17.0034 72.8047 16.7422 72.5915 16.5574C72.3818 16.3726 72.0834 16.2802 71.696 16.2802C71.2874 16.2802 70.9622 16.3708 70.7206 16.5521C70.4789 16.7298 70.319 16.9536 70.2408 17.2237L68.1407 17.0531C68.2473 16.5556 68.457 16.1257 68.7697 15.7632C69.0824 15.3972 69.4857 15.1164 69.9797 14.921C70.4772 14.722 71.0528 14.6225 71.7067 14.6225C72.1615 14.6225 72.5968 14.6758 73.0126 14.7824C73.4319 14.889 73.8033 15.0543 74.1266 15.2781C74.4536 15.502 74.7112 15.7898 74.8995 16.1416C75.0879 16.4899 75.182 16.9074 75.182 17.3943V22.9165H73.0286V21.7811H72.9646C72.8331 22.037 72.6572 22.2626 72.4369 22.4581C72.2166 22.6499 71.9519 22.801 71.6427 22.9111C71.3336 23.0177 70.9764 23.071 70.5713 23.071ZM71.2216 21.5039C71.5557 21.5039 71.8506 21.4382 72.1064 21.3067C72.3623 21.1717 72.5631 20.9904 72.7088 20.763C72.8545 20.5356 72.9273 20.278 72.9273 19.9901V19.1213C72.8562 19.1675 72.7585 19.2101 72.6341 19.2492C72.5133 19.2847 72.3765 19.3185 72.2237 19.3505C72.0709 19.3789 71.9181 19.4056 71.7653 19.4304C71.6125 19.4518 71.4739 19.4713 71.3495 19.4891C71.083 19.5282 70.8503 19.5904 70.6513 19.6756C70.4523 19.7609 70.2977 19.8764 70.1875 20.0221C70.0774 20.1642 70.0223 20.3419 70.0223 20.5551C70.0223 20.8643 70.1342 21.1006 70.3581 21.2641C70.5855 21.424 70.8734 21.5039 71.2216 21.5039Z" fill="black"/>
<path d="M83.7558 17.0638L81.677 17.1917C81.6415 17.014 81.5651 16.8541 81.4478 16.712C81.3305 16.5663 81.1759 16.4508 80.9841 16.3655C80.7957 16.2767 80.5701 16.2323 80.3071 16.2323C79.9553 16.2323 79.6586 16.3069 79.417 16.4561C79.1753 16.6018 79.0545 16.7973 79.0545 17.0425C79.0545 17.2379 79.1327 17.4031 79.289 17.5382C79.4454 17.6732 79.7137 17.7816 80.0939 17.8633L81.5757 18.1618C82.3717 18.3253 82.9651 18.5883 83.356 18.9507C83.7469 19.3132 83.9424 19.7893 83.9424 20.3792C83.9424 20.9158 83.7842 21.3867 83.468 21.7918C83.1553 22.1969 82.7253 22.5131 82.178 22.7406C81.6343 22.9644 81.0072 23.0764 80.2964 23.0764C79.2126 23.0764 78.3491 22.8507 77.7059 22.3994C77.0663 21.9446 76.6914 21.3263 76.5812 20.5445L78.8146 20.4272C78.8821 20.7577 79.0456 21.01 79.305 21.1841C79.5644 21.3547 79.8967 21.44 80.3018 21.44C80.6998 21.44 81.0196 21.3636 81.2612 21.2108C81.5064 21.0544 81.6308 20.8536 81.6343 20.6084C81.6308 20.4023 81.5437 20.2335 81.3732 20.1021C81.2026 19.967 80.9396 19.864 80.5843 19.7929L79.1664 19.5104C78.3669 19.3505 77.7717 19.0733 77.3808 18.6789C76.9934 18.2844 76.7998 17.7816 76.7998 17.1704C76.7998 16.6445 76.9419 16.1914 77.2262 15.8112C77.514 15.4309 77.9174 15.1378 78.4362 14.9317C78.9585 14.7256 79.5698 14.6225 80.2698 14.6225C81.3039 14.6225 82.1176 14.8411 82.7111 15.2781C83.3081 15.7152 83.6563 16.3104 83.7558 17.0638Z" fill="black"/>
<path d="M85.3722 22.9165V14.7291H87.5736V16.1576H87.6589C87.8082 15.6495 88.0587 15.2657 88.4105 15.0063C88.7623 14.7433 89.1674 14.6118 89.6258 14.6118C89.7395 14.6118 89.8621 14.619 89.9936 14.6332C90.1251 14.6474 90.2406 14.6669 90.3401 14.6918V16.7067C90.2334 16.6747 90.086 16.6462 89.8976 16.6214C89.7093 16.5965 89.537 16.5841 89.3806 16.5841C89.0466 16.5841 88.7481 16.6569 88.4851 16.8026C88.2257 16.9447 88.0196 17.1437 87.8668 17.3996C87.7175 17.6555 87.6429 17.9504 87.6429 18.2844V22.9165H85.3722Z" fill="black"/>
<path d="M94.8322 23.0764C94.0042 23.0764 93.2882 22.9005 92.6841 22.5487C92.0835 22.1933 91.6198 21.6994 91.2928 21.0668C90.9659 20.4308 90.8025 19.6934 90.8025 18.8548C90.8025 18.009 90.9659 17.2699 91.2928 16.6374C91.6198 16.0013 92.0835 15.5073 92.6841 15.1555C93.2882 14.8002 94.0042 14.6225 94.8322 14.6225C95.6601 14.6225 96.3744 14.8002 96.9749 15.1555C97.579 15.5073 98.0446 16.0013 98.3715 16.6374C98.6984 17.2699 98.8619 18.009 98.8619 18.8548C98.8619 19.6934 98.6984 20.4308 98.3715 21.0668C98.0446 21.6994 97.579 22.1933 96.9749 22.5487C96.3744 22.9005 95.6601 23.0764 94.8322 23.0764ZM94.8428 21.3174C95.2195 21.3174 95.534 21.2108 95.7863 20.9976C96.0386 20.7808 96.2287 20.4858 96.3566 20.1127C96.4881 19.7396 96.5538 19.315 96.5538 18.8388C96.5538 18.3626 96.4881 17.938 96.3566 17.5648C96.2287 17.1917 96.0386 16.8968 95.7863 16.68C95.534 16.4632 95.2195 16.3549 94.8428 16.3549C94.4626 16.3549 94.1428 16.4632 93.8834 16.68C93.6275 16.8968 93.4338 17.1917 93.3024 17.5648C93.1744 17.938 93.1105 18.3626 93.1105 18.8388C93.1105 19.315 93.1744 19.7396 93.3024 20.1127C93.4338 20.4858 93.6275 20.7808 93.8834 20.9976C94.1428 21.2108 94.4626 21.3174 94.8428 21.3174Z" fill="black"/>
<path d="M107.15 17.0638L105.072 17.1917C105.036 17.014 104.96 16.8541 104.842 16.712C104.725 16.5663 104.571 16.4508 104.379 16.3655C104.19 16.2767 103.965 16.2323 103.702 16.2323C103.35 16.2323 103.053 16.3069 102.812 16.4561C102.57 16.6018 102.449 16.7973 102.449 17.0425C102.449 17.2379 102.527 17.4031 102.684 17.5382C102.84 17.6732 103.108 17.7816 103.489 17.8633L104.97 18.1618C105.766 18.3253 106.36 18.5883 106.751 18.9507C107.142 19.3132 107.337 19.7893 107.337 20.3792C107.337 20.9158 107.179 21.3867 106.863 21.7918C106.55 22.1969 106.12 22.5131 105.573 22.7406C105.029 22.9644 104.402 23.0764 103.691 23.0764C102.607 23.0764 101.744 22.8507 101.101 22.3994C100.461 21.9446 100.086 21.3263 99.9759 20.5445L102.209 20.4272C102.277 20.7577 102.44 21.01 102.7 21.1841C102.959 21.3547 103.291 21.44 103.696 21.44C104.094 21.44 104.414 21.3636 104.656 21.2108C104.901 21.0544 105.025 20.8536 105.029 20.6084C105.025 20.4023 104.938 20.2335 104.768 20.1021C104.597 19.967 104.334 19.864 103.979 19.7929L102.561 19.5104C101.762 19.3505 101.166 19.0733 100.775 18.6789C100.388 18.2844 100.194 17.7816 100.194 17.1704C100.194 16.6445 100.337 16.1914 100.621 15.8112C100.909 15.4309 101.312 15.1378 101.831 14.9317C102.353 14.7256 102.964 14.6225 103.664 14.6225C104.699 14.6225 105.512 14.8411 106.106 15.2781C106.703 15.7152 107.051 16.3104 107.15 17.0638Z" fill="black"/>
<path d="M120.008 18.1832V22.9165H117.738V14.7291H119.902V16.1736H119.998C120.179 15.6975 120.483 15.3208 120.909 15.0436C121.336 14.7629 121.853 14.6225 122.46 14.6225C123.029 14.6225 123.525 14.7469 123.948 14.9956C124.37 15.2444 124.699 15.5997 124.934 16.0617C125.168 16.5201 125.285 17.0673 125.285 17.7034V22.9165H123.015V18.1085C123.018 17.6075 122.89 17.2166 122.631 16.9359C122.372 16.6516 122.014 16.5094 121.56 16.5094C121.254 16.5094 120.984 16.5752 120.749 16.7067C120.518 16.8381 120.337 17.03 120.206 17.2823C120.078 17.5311 120.012 17.8314 120.008 18.1832Z" fill="black"/>
<path d="M130.092 23.0497C129.47 23.0497 128.907 22.8898 128.402 22.57C127.901 22.2466 127.503 21.7722 127.208 21.1468C126.917 20.5178 126.771 19.7467 126.771 18.8334C126.771 17.8953 126.922 17.1153 127.224 16.4934C127.526 15.868 127.928 15.4007 128.429 15.0916C128.934 14.7789 129.486 14.6225 130.087 14.6225C130.545 14.6225 130.927 14.7007 131.233 14.857C131.542 15.0098 131.791 15.2017 131.979 15.4327C132.171 15.6601 132.317 15.884 132.416 16.1043H132.485V12H134.751V22.9165H132.512V21.6052H132.416C132.309 21.8326 132.158 22.0583 131.963 22.2822C131.771 22.5025 131.521 22.6855 131.211 22.8312C130.906 22.9769 130.533 23.0497 130.092 23.0497ZM130.812 21.2427C131.178 21.2427 131.487 21.1432 131.739 20.9442C131.995 20.7417 132.19 20.4592 132.325 20.0967C132.464 19.7343 132.533 19.3096 132.533 18.8228C132.533 18.336 132.466 17.9131 132.331 17.5542C132.196 17.1953 132 16.9181 131.744 16.7226C131.489 16.5272 131.178 16.4295 130.812 16.4295C130.439 16.4295 130.124 16.5308 129.868 16.7333C129.612 16.9359 129.419 17.2166 129.287 17.5755C129.156 17.9344 129.09 18.3502 129.09 18.8228C129.09 19.299 129.156 19.7201 129.287 20.0861C129.422 20.4485 129.616 20.7328 129.868 20.9389C130.124 21.1415 130.439 21.2427 130.812 21.2427Z" fill="black"/>
<path d="M138.952 23.071C138.43 23.071 137.964 22.9804 137.556 22.7992C137.147 22.6144 136.824 22.3426 136.586 21.9837C136.351 21.6212 136.234 21.1699 136.234 20.6298C136.234 20.1749 136.317 19.7929 136.484 19.4837C136.651 19.1746 136.879 18.9258 137.167 18.7375C137.455 18.5492 137.781 18.407 138.147 18.3111C138.517 18.2151 138.904 18.1476 139.309 18.1085C139.786 18.0588 140.169 18.0126 140.461 17.9699C140.752 17.9237 140.964 17.8562 141.095 17.7674C141.227 17.6785 141.292 17.5471 141.292 17.3729V17.341C141.292 17.0034 141.186 16.7422 140.973 16.5574C140.763 16.3726 140.464 16.2802 140.077 16.2802C139.668 16.2802 139.343 16.3708 139.102 16.5521C138.86 16.7298 138.7 16.9536 138.622 17.2237L136.522 17.0531C136.628 16.5556 136.838 16.1257 137.151 15.7632C137.463 15.3972 137.867 15.1164 138.361 14.921C138.858 14.722 139.434 14.6225 140.088 14.6225C140.543 14.6225 140.978 14.6758 141.394 14.7824C141.813 14.889 142.184 15.0543 142.508 15.2781C142.835 15.502 143.092 15.7898 143.281 16.1416C143.469 16.4899 143.563 16.9074 143.563 17.3943V22.9165H141.41V21.7811H141.346C141.214 22.037 141.038 22.2626 140.818 22.4581C140.598 22.6499 140.333 22.801 140.024 22.9111C139.715 23.0177 139.357 23.071 138.952 23.071ZM139.603 21.5039C139.937 21.5039 140.232 21.4382 140.487 21.3067C140.743 21.1717 140.944 20.9904 141.09 20.763C141.235 20.5356 141.308 20.278 141.308 19.9901V19.1213C141.237 19.1675 141.14 19.2101 141.015 19.2492C140.894 19.2847 140.758 19.3185 140.605 19.3505C140.452 19.3789 140.299 19.4056 140.146 19.4304C139.994 19.4518 139.855 19.4713 139.731 19.4891C139.464 19.5282 139.231 19.5904 139.032 19.6756C138.833 19.7609 138.679 19.8764 138.569 20.0221C138.458 20.1642 138.403 20.3419 138.403 20.5551C138.403 20.8643 138.515 21.1006 138.739 21.2641C138.967 21.424 139.254 21.5039 139.603 21.5039Z" fill="black"/>
<path d="M147.595 18.1832V22.9165H145.325V12H147.531V16.1736H147.627C147.812 15.6903 148.111 15.3119 148.523 15.0383C148.935 14.7611 149.452 14.6225 150.074 14.6225C150.643 14.6225 151.138 14.7469 151.561 14.9956C151.988 15.2408 152.318 15.5944 152.553 16.0564C152.791 16.5148 152.908 17.0638 152.904 17.7034V22.9165H150.634V18.1085C150.637 17.6039 150.509 17.2113 150.25 16.9305C149.994 16.6498 149.635 16.5094 149.173 16.5094C148.864 16.5094 148.59 16.5752 148.352 16.7067C148.118 16.8381 147.933 17.03 147.798 17.2823C147.666 17.5311 147.599 17.8314 147.595 18.1832Z" fill="black"/>
<path d="M156.962 12V22.9165H154.691V12H156.962Z" fill="black"/>
<path fill-rule="evenodd" clip-rule="evenodd" d="M110.323 22.5647C110.931 22.9058 111.656 23.0764 112.498 23.0764C113.173 23.0764 113.768 22.9733 114.284 22.7672C114.803 22.5576 115.225 22.2662 115.552 21.893C115.883 21.5164 116.101 21.0757 116.208 20.5711L114.108 20.4325C114.03 20.6386 113.916 20.8128 113.767 20.9549C113.617 21.097 113.438 21.2037 113.228 21.2747C113.019 21.3458 112.788 21.3813 112.535 21.3813C112.155 21.3813 111.826 21.3014 111.549 21.1415C111.272 20.9816 111.057 20.7541 110.904 20.4592C110.755 20.1642 110.68 19.8142 110.68 19.4091V19.4038H116.256V18.7801C116.256 18.0837 116.158 17.476 115.963 16.9572C115.767 16.4348 115.494 16.0013 115.142 15.6566C114.794 15.3119 114.385 15.0543 113.916 14.8837C113.45 14.7096 112.948 14.6225 112.407 14.6225C111.604 14.6225 110.904 14.8002 110.307 15.1555C109.714 15.5109 109.254 16.0066 108.927 16.6427C108.6 17.2788 108.436 18.0179 108.436 18.8601C108.436 19.7236 108.6 20.4716 108.927 21.1042C109.254 21.7331 109.719 22.22 110.323 22.5647ZM110.683 17.9966H114.118C114.118 17.6697 114.047 17.3801 113.905 17.1278C113.763 16.8754 113.566 16.6782 113.314 16.5361C113.065 16.3904 112.775 16.3175 112.445 16.3175C112.1 16.3175 111.794 16.3975 111.528 16.5574C111.265 16.7138 111.059 16.9252 110.91 17.1917C110.772 17.4343 110.696 17.7026 110.683 17.9966ZM110.68 18.0712V19.4038H109.343V17.9966H110.683C110.681 18.0213 110.681 18.0462 110.68 18.0712Z" fill="black"/>
<path d="M109.343 17.9966V19.4038H110.68V18.0712C110.681 18.0462 110.681 18.0213 110.683 17.9966H109.343Z" fill="black"/>
<path d="M14 28.585L19.5729 35.8715C18.8911 35.9736 18.202 36.0152 17.5132 35.9958C13.5196 35.9955 9.64612 34.5927 6.53472 32.02C3.42333 29.4472 1.26094 25.859 0.406034 21.8501C-0.44887 17.8412 0.0550594 13.6525 1.83426 9.97832C3.61346 6.30412 7.07528 3.36511 10.7027 1.6485V17C10.7025 17.5535 10.7027 17.9977 11.1892 18.4977C11.6757 18.9977 12.11 18.9993 12.6486 19H18.1692C18.3623 19.0004 18.5511 19.0591 18.7121 19.1687C18.8731 19.2783 18.9993 19.434 19.075 19.6166C19.1506 19.7992 19.1725 20.0007 19.1379 20.1959C19.1032 20.3912 19.0135 20.5717 18.88 20.7151L14.1198 25.9559C13.7936 26.3051 13.6018 26.7639 13.5797 27.2474C13.5577 27.7308 13.707 28.2061 14 28.585Z" fill="#256265"/>
<path d="M36 18.006C36.0008 21.522 34.9526 24.9612 32.9849 27.8994C31.0171 30.8375 27.747 33.6061 24.458 35L19.6911 28.9163C19.3482 28.5008 19.1675 27.979 19.1813 27.4445C19.1951 26.91 19.4026 26.3979 19.7666 26L25.5 18.9789C25.9018 18.5478 26.1251 17.9849 26.126 17.4007C26.1276 17.0865 26.0659 16.7751 25.9444 16.4844C25.8228 16.1937 25.6439 15.9294 25.4178 15.7069C25.1918 15.4844 24.9231 15.308 24.6272 15.1879C24.3314 15.0677 24.0142 15.0063 23.694 15.007H16.6332C16.1235 15 15.6138 15.007 15.1042 14.5068C14.5947 14.0067 14.5946 13.5 14.5946 13.006V0.20831C17.2095 -0.185307 20.1394 -0.0197645 22.6831 0.693608C25.2268 1.40698 27.5833 2.65134 29.5914 4.34149C31.5996 6.03165 33.2119 8.1277 34.318 10.4861C35.4241 12.8446 35.9978 15.4098 36 18.006Z" fill="#256265"/>
</svg>
