<svg width="36" height="37" viewBox="0 0 36 37" fill="none" xmlns="http://www.w3.org/2000/svg">
<circle cx="18" cy="18" r="18" fill="white"/>
<path d="M14 28.585L19.5781 35.9297C18.8633 35.9958 18.202 36.0151 17.5132 35.9958C13.5196 35.9955 9.64612 34.5927 6.53472 32.0199C3.42333 29.4472 1.26094 25.8589 0.406034 21.8501C-0.44887 17.8412 0.0550594 13.6525 1.83426 9.97829C3.82813 6.12109 7.01953 3.15625 10.7027 1.53906V17C10.7025 17.5535 10.7027 17.9976 11.1892 18.4976C11.6757 18.9976 12.11 18.9993 12.6486 19H18.1692C18.3623 19.0004 18.5511 19.059 18.7121 19.1686C18.8731 19.2782 18.9993 19.434 19.075 19.6166C19.1506 19.7992 19.1725 20.0006 19.1379 20.1959C19.1032 20.3911 19.0135 20.5716 18.88 20.715L14.1198 25.9559C13.7936 26.305 13.6018 26.7639 13.5797 27.2473C13.5577 27.7308 13.707 28.2061 14 28.585Z" fill="#256265"/>
<path d="M36 18.006C36.0008 21.522 35.031 25.0375 33.0195 27.9219C31.3801 30.5247 28.6211 33.2188 24.3228 34.8647L19.6911 28.9163C19.3482 28.5008 19.1675 27.979 19.1813 27.4445C19.1952 26.91 19.4027 26.3979 19.7666 26L25.5 18.9789C25.9019 18.5478 26.1251 17.9849 26.126 17.4007C26.1276 17.0865 26.0659 16.775 25.9444 16.4843C25.8228 16.1936 25.6439 15.9294 25.4178 15.7069C25.1918 15.4844 24.9231 15.308 24.6272 15.1879C24.3314 15.0677 24.0142 15.0062 23.6941 15.0069H16.6332C16.1236 15 15.6138 15.0069 15.1043 14.5068C14.5947 14.0067 14.5946 13.5 14.5946 13.006L14.5946 0.3086C17.2301 -0.183159 20.1556 -0.0922716 22.6992 0.621101C25.4063 1.35938 27.6286 2.57938 29.6367 4.26954C31.6449 5.9597 33.2455 8.10641 34.3516 10.4649C35.5616 13.045 35.9983 15.2591 36 18.006Z" fill="#256265"/>
</svg>
