<svg width="36" height="36" viewBox="0 0 36 36" fill="none" xmlns="http://www.w3.org/2000/svg">
<path d="M14 28.585L19.5729 35.8715C18.8911 35.9736 18.202 36.0152 17.5132 35.9958C13.5196 35.9955 9.64612 34.5927 6.53472 32.02C3.42333 29.4472 1.26094 25.859 0.406034 21.8501C-0.44887 17.8412 0.0550594 13.6525 1.83426 9.97832C3.61346 6.30412 7.07528 3.36511 10.7027 1.6485V17C10.7025 17.5535 10.7027 17.9977 11.1892 18.4977C11.6757 18.9977 12.11 18.9993 12.6486 19H18.1692C18.3623 19.0004 18.5511 19.0591 18.7121 19.1687C18.8731 19.2783 18.9993 19.434 19.075 19.6166C19.1506 19.7992 19.1725 20.0007 19.1379 20.1959C19.1032 20.3912 19.0135 20.5717 18.88 20.7151L14.1198 25.9559C13.7936 26.3051 13.6018 26.7639 13.5797 27.2474C13.5577 27.7308 13.707 28.2061 14 28.585Z" fill="#256265"/>
<path d="M36 18.006C36.0008 21.522 34.9527 24.9612 32.9849 27.8994C31.0172 30.8375 27.747 33.6061 24.458 35L19.6911 28.9163C19.3482 28.5008 19.1675 27.979 19.1813 27.4445C19.1952 26.91 19.4027 26.3979 19.7666 26L25.5 18.9789C25.9019 18.5478 26.1251 17.9849 26.126 17.4007C26.1276 17.0865 26.0659 16.7751 25.9444 16.4844C25.8228 16.1937 25.6439 15.9294 25.4178 15.7069C25.1918 15.4844 24.9231 15.308 24.6272 15.1879C24.3314 15.0677 24.0142 15.0063 23.6941 15.007H16.6332C16.1236 15 15.6138 15.007 15.1043 14.5068C14.5947 14.0067 14.5946 13.5 14.5946 13.006V0.20831C17.2095 -0.185307 20.1395 -0.0197645 22.6831 0.693608C25.2268 1.40698 27.5833 2.65134 29.5915 4.34149C31.5996 6.03165 33.2119 8.1277 34.318 10.4861C35.4241 12.8446 35.9979 15.4098 36 18.006Z" fill="#256265"/>
</svg>
