<svg width="284" height="81" viewBox="0 0 284 81" fill="none" xmlns="http://www.w3.org/2000/svg">
<path d="M131.149 47.9763C131.149 49.6671 130.704 51.1206 129.814 52.3368C128.953 53.553 127.782 54.4874 126.299 55.14C124.815 55.7926 123.184 56.1189 121.404 56.1189H106.32V24.5273H122.606C124.089 24.5273 125.364 24.9278 126.432 25.7287C127.53 26.5 128.36 27.5085 128.924 28.7544C129.517 29.9706 129.814 31.2461 129.814 32.581C129.814 34.1235 129.413 35.577 128.612 36.9415C127.841 38.2763 126.729 39.2701 125.275 39.9227C127.085 40.4566 128.509 41.4355 129.547 42.8593C130.615 44.2535 131.149 45.9592 131.149 47.9763ZM126.032 47.0419C126.032 46.152 125.839 45.3511 125.453 44.6391C125.097 43.8976 124.593 43.3043 123.94 42.8593C123.317 42.3847 122.576 42.1474 121.716 42.1474H111.304V51.8029H121.404C122.294 51.8029 123.08 51.5952 123.762 51.1799C124.474 50.735 125.023 50.1565 125.409 49.4446C125.824 48.703 126.032 47.9021 126.032 47.0419ZM111.304 28.8434V38.1428H120.47C121.3 38.1428 122.042 37.95 122.695 37.5644C123.347 37.1491 123.866 36.6004 124.252 35.9181C124.637 35.2062 124.83 34.4053 124.83 33.5154C124.83 32.5958 124.652 31.7949 124.296 31.1126C123.94 30.4007 123.451 29.8519 122.828 29.4663C122.235 29.051 121.538 28.8434 120.737 28.8434H111.304Z" fill="black"/>
<path d="M159.684 51.7139V56.1189H138.014V24.5273H159.283V28.9324H142.998V37.9204H157.103V42.0584H142.998V51.7139H159.684Z" fill="black"/>
<path d="M168.495 24.5273L178.017 50.023L187.495 24.5273H192.79L180.375 56.1189H175.659L163.2 24.5273H168.495Z" fill="black"/>
<path d="M219.987 51.7139V56.1189H198.317V24.5273H219.586V28.9324H203.301V37.9204H217.406V42.0584H203.301V51.7139H219.987Z" fill="black"/>
<path d="M226.796 56.1189V24.5273H240.545C241.969 24.5273 243.274 24.824 244.461 25.4172C245.647 26.0105 246.671 26.7966 247.531 27.7755C248.421 28.7544 249.103 29.8519 249.578 31.0681C250.082 32.2843 250.334 33.5302 250.334 34.8057C250.334 36.1999 250.082 37.5347 249.578 38.8103C249.073 40.0858 248.347 41.1833 247.397 42.1029C246.478 43.0225 245.395 43.6899 244.149 44.1052L251.58 56.1189H245.973L239.121 45.1286H231.78V56.1189H226.796ZM231.78 40.7236H240.501C241.42 40.7236 242.236 40.4566 242.948 39.9227C243.66 39.3887 244.223 38.6768 244.639 37.7869C245.054 36.8673 245.262 35.8736 245.262 34.8057C245.262 33.7082 245.024 32.7293 244.55 31.869C244.075 30.9791 243.452 30.2672 242.681 29.7333C241.939 29.1993 241.123 28.9324 240.234 28.9324H231.78V40.7236Z" fill="black"/>
<path d="M267.003 24.5273H271.72L284 56.1189H278.75L275.413 47.5313H263.221L259.929 56.1189H254.634L267.003 24.5273ZM274.434 43.8382L269.362 30.0002L264.111 43.8382H274.434Z" fill="black"/>
<g clip-path="url(#clip0_364_1825)">
<path d="M1.66895 40.546C1.66895 45.5857 2.6616 50.5761 4.59022 55.2322C6.51885 59.8884 9.34568 64.119 12.9093 67.6826C16.473 71.2463 20.7036 74.0731 25.3597 76.0017C30.0158 77.9304 35.0062 78.923 40.046 78.923C45.0857 78.923 50.0761 77.9304 54.7322 76.0017C59.3884 74.0731 63.619 71.2463 67.1826 67.6826C70.7463 64.119 73.5731 59.8884 75.5017 55.2322C77.4304 50.5761 78.423 45.5857 78.423 40.546C78.423 35.5062 77.4304 30.5158 75.5017 25.8597C73.5731 21.2036 70.7463 16.973 67.1826 13.4093C63.619 9.84568 59.3884 7.01885 54.7322 5.09022C50.0761 3.1616 45.0857 2.16895 40.046 2.16895C35.0062 2.16895 30.0158 3.1616 25.3597 5.09022C20.7036 7.01885 16.473 9.84568 12.9093 13.4093C9.34568 16.973 6.51885 21.2036 4.59022 25.8597C2.6616 30.5158 1.66895 35.5062 1.66895 40.546V40.546Z" stroke="black" stroke-width="3" stroke-linecap="round" stroke-linejoin="round"/>
<path d="M35.04 35.54C35.04 36.8676 35.5674 38.1408 36.5062 39.0796C37.4449 40.0183 38.7181 40.5457 40.0457 40.5457C41.3733 40.5457 42.6466 40.0183 43.5853 39.0796C44.5241 38.1408 45.0514 36.8676 45.0514 35.54C45.0514 34.2124 44.5241 32.9392 43.5853 32.0004C42.6466 31.0617 41.3733 30.5343 40.0457 30.5343C38.7181 30.5343 37.4449 31.0617 36.5062 32.0004C35.5674 32.9392 35.04 34.2124 35.04 35.54V35.54Z" stroke="black" stroke-width="3" stroke-linecap="round" stroke-linejoin="round"/>
<path d="M18.3545 35.54C18.3545 36.1974 18.484 36.8483 18.7355 37.4556C18.9871 38.0629 19.3558 38.6147 19.8206 39.0796C20.2854 39.5444 20.8373 39.9131 21.4446 40.1647C22.0519 40.4162 22.7028 40.5457 23.3602 40.5457C24.0176 40.5457 24.6685 40.4162 25.2758 40.1647C25.8831 39.9131 26.4349 39.5444 26.8998 39.0796C27.3646 38.6147 27.7333 38.0629 27.9849 37.4556C28.2364 36.8483 28.3659 36.1974 28.3659 35.54C28.3659 34.8826 28.2364 34.2317 27.9849 33.6244C27.7333 33.0171 27.3646 32.4653 26.8998 32.0004C26.4349 31.5356 25.8831 31.1669 25.2758 30.9153C24.6685 30.6638 24.0176 30.5343 23.3602 30.5343C22.7028 30.5343 22.0519 30.6638 21.4446 30.9153C20.8373 31.1669 20.2854 31.5356 19.8206 32.0004C19.3558 32.4653 18.9871 33.0171 18.7355 33.6244C18.484 34.2317 18.3545 34.8826 18.3545 35.54Z" stroke="black" stroke-width="3" stroke-linecap="round" stroke-linejoin="round"/>
<path d="M51.7256 35.54C51.7256 36.8676 52.253 38.1408 53.1917 39.0796C54.1305 40.0183 55.4037 40.5457 56.7313 40.5457C58.0589 40.5457 59.3321 40.0183 60.2708 39.0796C61.2096 38.1408 61.737 36.8676 61.737 35.54C61.737 34.2124 61.2096 32.9392 60.2708 32.0004C59.3321 31.0617 58.0589 30.5343 56.7313 30.5343C55.4037 30.5343 54.1305 31.0617 53.1917 32.0004C52.253 32.9392 51.7256 34.2124 51.7256 35.54V35.54Z" stroke="black" stroke-width="3" stroke-linecap="round" stroke-linejoin="round"/>
<path d="M26.6973 50.5571C26.6973 51.8847 27.2246 53.1579 28.1634 54.0967C29.1022 55.0354 30.3754 55.5628 31.703 55.5628C33.0306 55.5628 34.3038 55.0354 35.2425 54.0967C36.1813 53.1579 36.7087 51.8847 36.7087 50.5571C36.7087 49.2295 36.1813 47.9563 35.2425 47.0175C34.3038 46.0788 33.0306 45.5514 31.703 45.5514C30.3754 45.5514 29.1022 46.0788 28.1634 47.0175C27.2246 47.9563 26.6973 49.2295 26.6973 50.5571V50.5571Z" stroke="black" stroke-width="3" stroke-linecap="round" stroke-linejoin="round"/>
<path d="M43.3828 50.5571C43.3828 51.8847 43.9102 53.1579 44.8489 54.0967C45.7877 55.0354 47.0609 55.5628 48.3885 55.5628C49.7161 55.5628 50.9893 55.0354 51.9281 54.0967C52.8668 53.1579 53.3942 51.8847 53.3942 50.5571C53.3942 49.2295 52.8668 47.9563 51.9281 47.0175C50.9893 46.0788 49.7161 45.5514 48.3885 45.5514C47.0609 45.5514 45.7877 46.0788 44.8489 47.0175C43.9102 47.9563 43.3828 49.2295 43.3828 50.5571V50.5571Z" stroke="black" stroke-width="3" stroke-linecap="round" stroke-linejoin="round"/>
<path d="M35.04 63.9062C35.04 65.2338 35.5674 66.507 36.5062 67.4458C37.4449 68.3845 38.7181 68.9119 40.0457 68.9119C41.3733 68.9119 42.6466 68.3845 43.5853 67.4458C44.5241 66.507 45.0514 65.2338 45.0514 63.9062C45.0514 62.5786 44.5241 61.3054 43.5853 60.3667C42.6466 59.4279 41.3733 58.9005 40.0457 58.9005C38.7181 58.9005 37.4449 59.4279 36.5062 60.3667C35.5674 61.3054 35.04 62.5786 35.04 63.9062V63.9062Z" stroke="black" stroke-width="3" stroke-linecap="round" stroke-linejoin="round"/>
<path d="M38.377 23.8603V12.1803" stroke="black" stroke-width="3" stroke-linecap="round" stroke-linejoin="round"/>
<path d="M51.726 13.8492H55.0632V17.1864C55.0632 18.9565 54.36 20.6541 53.1083 21.9058C51.8566 23.1575 50.159 23.8606 48.3889 23.8606H45.0518V20.5235C45.0518 18.7534 45.7549 17.0558 47.0066 15.8041C48.2583 14.5524 49.9559 13.8492 51.726 13.8492Z" stroke="black" stroke-width="3" stroke-linecap="round" stroke-linejoin="round"/>
</g>
<defs>
<clipPath id="clip0_364_1825">
<rect width="80.0912" height="80.0912" fill="white" transform="translate(0 0.5)"/>
</clipPath>
</defs>
</svg>
