<svg width="150" height="75" viewBox="0 0 150 75" fill="none" xmlns="http://www.w3.org/2000/svg">
<path fill-rule="evenodd" clip-rule="evenodd" d="M108.056 0.332349L150 73.726H128.75L124.139 65.7496H103L110.389 52.8157H116.75L108.028 37.4723L98.8889 53.3973C97.4528 55.89 96 58.0779 94.5833 59.9612C87.6111 69.1285 76.3056 75 63.75 75C42.6944 75 25.4167 58.3826 25.4167 37.8877C25.4167 17.3929 42.5556 0.77548 63.75 0.77548C70.9444 0.77548 77.4167 2.66987 83.0556 5.8438L74.0278 21.6857C70.911 19.8616 67.364 18.8962 63.75 18.8885C52.9722 18.8885 44.25 27.3634 44.25 37.8047C44.25 48.2736 52.9722 56.7208 63.75 56.7208C69.6111 56.7208 74.4167 54.3307 77.9167 50.8493C79.4583 49.3565 81.1944 46.8612 81.7222 45.9749L108 0L108.056 0.332349ZM0 73.726V2.27105H18.6944V73.726H0Z" fill="#E3000B"/>
</svg>
